<svg viewBox="0 -22 512 512" xmlns="http://www.w3.org/2000/svg">
    <g fill="#e0824a">
        <path d="m455.828125 74.121094h-399.65625c-10.3125 0-18.671875-8.359375-18.671875-18.675782 0-10.3125 8.359375-18.671874 18.671875-18.671874h399.652344c10.316406 0 18.675781 8.359374 18.675781 18.671874 0 10.316407-8.359375 18.675782-18.671875 18.675782zm0 0"/>
        <path d="m455.828125 319.839844h-399.65625c-10.3125 0-18.671875-8.363282-18.671875-18.675782s8.359375-18.671874 18.671875-18.671874h399.652344c10.316406 0 18.675781 8.359374 18.675781 18.671874s-8.359375 18.675782-18.671875 18.675782zm0 0"/>
        <path d="m455.828125 196.980469h-399.65625c-10.3125 0-18.671875-8.363281-18.671875-18.675781s8.359375-18.671876 18.671875-18.671876h399.652344c10.316406 0 18.675781 8.359376 18.675781 18.671876s-8.359375 18.675781-18.671875 18.675781zm0 0"/>
    </g>
    <path d="m255.898438 103.394531c-14.699219 0-26.609376-11.914062-26.609376-26.609375v-42.675781c0-14.695313 11.910157-26.609375 26.609376-26.609375 14.695312 0 26.609374 11.914062 26.609374 26.609375v42.675781c0 14.695313-11.914062 26.609375-26.609374 26.609375zm0 0"
          fill="#fd6f71"/>
    <path d="m249.289062 76.785156v-42.675781c0-11.160156 6.867188-20.707031 16.609376-24.660156-3.089844-1.253907-6.464844-1.949219-10-1.949219-14.699219 0-26.609376 11.914062-26.609376 26.609375v42.675781c0 14.695313 11.910157 26.609375 26.609376 26.609375 3.535156 0 6.910156-.699219 10-1.949219-9.742188-3.957031-16.609376-13.503906-16.609376-24.660156zm0 0"
          fill="#e36465"/>
    <path d="m202.679688 103.394531c-14.699219 0-26.609376-11.914062-26.609376-26.609375v-42.675781c0-14.695313 11.910157-26.609375 26.609376-26.609375 14.695312 0 26.605468 11.914062 26.605468 26.609375v42.675781c.003906 14.695313-11.910156 26.609375-26.605468 26.609375zm0 0"
          fill="#fd6f71"/>
    <path d="m196.070312 76.785156v-42.675781c0-11.160156 6.867188-20.707031 16.609376-24.660156-3.089844-1.253907-6.464844-1.949219-10-1.949219-14.699219 0-26.609376 11.914062-26.609376 26.609375v42.675781c0 14.695313 11.910157 26.609375 26.609376 26.609375 3.535156 0 6.910156-.699219 10-1.949219-9.738282-3.957031-16.609376-13.503906-16.609376-24.660156zm0 0"
          fill="#e36465"/>
    <path d="m341.496094 349.109375c-14.695313 0-26.609375-11.910156-26.609375-26.605469v-42.679687c0-14.695313 11.914062-26.605469 26.609375-26.605469 14.695312 0 26.609375 11.910156 26.609375 26.605469v42.679687c0 14.695313-11.914063 26.605469-26.609375 26.605469zm0 0"
          fill="#58b78c"/>
    <path d="m334.886719 322.503906v-42.679687c0-11.15625 6.871093-20.703125 16.609375-24.65625-3.089844-1.253907-6.460938-1.949219-10-1.949219-14.695313 0-26.609375 11.910156-26.609375 26.605469v42.679687c0 14.695313 11.914062 26.605469 26.609375 26.605469 3.539062 0 6.910156-.695313 10-1.949219-9.738282-3.953125-16.609375-13.5-16.609375-24.65625zm0 0"
          fill="#46926f"/>
    <path d="m170.503906 349.109375c-14.695312 0-26.609375-11.910156-26.609375-26.605469v-42.679687c0-14.695313 11.914063-26.605469 26.609375-26.605469 14.695313 0 26.609375 11.910156 26.609375 26.605469v42.679687c0 14.695313-11.914062 26.605469-26.609375 26.605469zm0 0"
          fill="#58b78c"/>
    <path d="m163.894531 322.503906v-42.679687c0-11.15625 6.871094-20.703125 16.609375-24.65625-3.089844-1.253907-6.460937-1.949219-10-1.949219-14.695312 0-26.609375 11.910156-26.609375 26.605469v42.679687c0 14.695313 11.914063 26.605469 26.609375 26.605469 3.539063 0 6.910156-.695313 10-1.949219-9.738281-3.953125-16.609375-13.5-16.609375-24.65625zm0 0"
          fill="#46926f"/>
    <path d="m328.191406 226.253906c-14.695312 0-26.609375-11.914062-26.609375-26.609375v-42.675781c0-14.695312 11.914063-26.609375 26.609375-26.609375 14.695313 0 26.609375 11.914063 26.609375 26.609375v42.675781c0 14.695313-11.914062 26.609375-26.609375 26.609375zm0 0"
          fill="#fadc60"/>
    <path d="m321.582031 199.644531v-42.675781c0-11.160156 6.871094-20.707031 16.609375-24.660156-3.089844-1.253906-6.460937-1.949219-10-1.949219-14.695312 0-26.609375 11.914063-26.609375 26.609375v42.675781c0 14.695313 11.914063 26.609375 26.609375 26.609375 3.539063 0 6.910156-.695312 10-1.949218-9.738281-3.957032-16.609375-13.503907-16.609375-24.660157zm0 0"
          fill="#e6cb59"/>
    <path d="m274.972656 226.253906c-14.695312 0-26.609375-11.914062-26.609375-26.609375v-42.675781c0-14.695312 11.914063-26.609375 26.609375-26.609375 14.695313 0 26.609375 11.914063 26.609375 26.609375v42.675781c0 14.695313-11.914062 26.609375-26.609375 26.609375zm0 0"
          fill="#fadc60"/>
    <path d="m268.363281 199.644531v-42.675781c0-11.160156 6.871094-20.707031 16.609375-24.660156-3.085937-1.253906-6.460937-1.949219-10-1.949219-14.695312 0-26.609375 11.914063-26.609375 26.609375v42.675781c0 14.695313 11.914063 26.609375 26.609375 26.609375 3.539063 0 6.914063-.695312 10-1.949218-9.738281-3.957032-16.609375-13.503907-16.609375-24.660157zm0 0"
          fill="#e6cb59"/>
    <path d="m183.808594 226.253906c-14.695313 0-26.609375-11.914062-26.609375-26.609375v-42.675781c0-14.695312 11.914062-26.609375 26.609375-26.609375 14.695312 0 26.609375 11.914063 26.609375 26.609375v42.675781c0 14.695313-11.914063 26.609375-26.609375 26.609375zm0 0"
          fill="#fadc60"/>
    <path d="m177.199219 199.644531v-42.675781c0-11.160156 6.871093-20.707031 16.609375-24.660156-3.089844-1.253906-6.460938-1.949219-10-1.949219-14.695313 0-26.609375 11.914063-26.609375 26.609375v42.675781c0 14.695313 11.914062 26.609375 26.609375 26.609375 3.539062 0 6.910156-.695312 10-1.949218-9.738282-3.957032-16.609375-13.503907-16.609375-24.660157zm0 0"
          fill="#e6cb59"/>
    <path d="m119.6875 426.117188h-52.1875v-410.46875c0-4.5 3.648438-8.148438 8.148438-8.148438h35.890624c4.5 0 8.148438 3.648438 8.148438 8.148438zm0 0"
          fill="#fa9f6a"/>
    <path d="m95.648438 7.5h-20c-4.5 0-8.148438 3.648438-8.148438 8.148438v410.46875h20v-410.46875c0-4.5 3.648438-8.148438 8.148438-8.148438zm0 0"
          fill="#eb8f59"/>
    <path d="m444.5 426.117188h-52.1875v-410.46875c0-4.5 3.648438-8.148438 8.148438-8.148438h35.890624c4.5 0 8.148438 3.648438 8.148438 8.148438zm0 0"
          fill="#fa9f6a"/>
    <path d="m420.460938 7.5h-20c-4.5 0-8.148438 3.648438-8.148438 8.148438v410.46875h20v-410.46875c0-4.5 3.648438-8.148438 8.148438-8.148438zm0 0"
          fill="#eb8f59"/>
    <path d="m493.285156 461.496094h-474.570312c-6.195313 0-11.214844-5.023438-11.214844-11.214844v-41.117188c0-6.195312 5.023438-11.21875 11.214844-11.21875h474.570312c6.195313 0 11.214844 5.023438 11.214844 11.21875v41.117188c0 6.195312-5.023438 11.214844-11.214844 11.214844zm0 0"
          fill="#596674"/>
    <path d="m37.5 450.28125v-41.121094c0-6.191406 5.023438-11.214844 11.214844-11.214844h-30c-6.195313 0-11.214844 5.023438-11.214844 11.214844v41.121094c0 6.191406 5.023438 11.214844 11.214844 11.214844h30c-6.191406 0-11.214844-5.019532-11.214844-11.214844zm0 0"
          fill="#565c62"/>
    <path d="m493.285156 390.445312h-41.285156v-63.105468h3.828125c14.429687 0 26.171875-11.742188 26.171875-26.175782 0-14.433593-11.742188-26.171874-26.171875-26.171874h-3.828125v-70.515626h3.828125c14.429687 0 26.171875-11.738281 26.171875-26.171874 0-14.433594-11.742188-26.171876-26.171875-26.171876h-3.828125v-21.777343c0-4.140625-3.355469-7.5-7.5-7.5s-7.5 3.359375-7.5 7.5v260.089843h-37.1875v-70.589843c0-.003907 0-.011719 0-.015625 0-.007813 0-.015625 0-.019532v-37.308593c0-.007813 0-.015625 0-.019531 0-.007813 0-.011719 0-.019532v-122.820312c0-.007813 0-.015625 0-.019532 0-.007812 0-.015624 0-.019531v-143.964843c0-.359376.289062-.648438.648438-.648438h35.890624c.359376 0 .648438.289062.648438.648438v87.226562c0 4.144531 3.355469 7.5 7.5 7.5s7.5-3.355469 7.5-7.5v-21.253906h3.828125c14.429687 0 26.171875-11.742188 26.171875-26.175782 0-14.429687-11.742188-26.171874-26.171875-26.171874h-3.828125v-13.625c0-8.628907-7.019531-15.648438-15.648438-15.648438h-35.890624c-8.628907 0-15.648438 7.019531-15.648438 15.648438v13.625h-95.15625c-2.355469-16.527344-16.59375-29.273438-33.757812-29.273438-10.753907 0-20.355469 5.007812-26.609376 12.804688-6.257812-7.796876-15.855468-12.804688-26.609374-12.804688-17.167969 0-31.40625 12.746094-33.761719 29.273438h-41.730469v-13.625c0-8.628907-7.019531-15.648438-15.648438-15.648438h-35.890624c-8.628907 0-15.648438 7.019531-15.648438 15.648438v13.625h-3.828125c-14.429687 0-26.171875 11.742187-26.171875 26.171874 0 14.433594 11.742188 26.175782 26.171875 26.175782h3.828125v70.511718h-3.828125c-14.429687 0-26.171875 11.738282-26.171875 26.171876 0 14.433593 11.742188 26.175781 26.171875 26.175781h3.828125v70.511719h-3.828125c-14.429687 0-26.171875 11.738281-26.171875 26.171874 0 14.433594 11.742188 26.175782 26.171875 26.175782h3.828125v63.105468h-41.285156c-10.320313 0-18.714844 8.398438-18.714844 18.71875v41.117188c0 10.320312 8.394531 18.714844 18.714844 18.714844h474.570312c10.320313 0 18.714844-8.394532 18.714844-18.714844v-41.117188c0-10.320312-8.394531-18.71875-18.714844-18.71875zm-41.285156-223.3125h3.828125c6.160156 0 11.171875 5.011719 11.171875 11.171876 0 6.164062-5.011719 11.175781-11.171875 11.175781h-3.828125zm0 122.859376h3.828125c6.160156 0 11.171875 5.011718 11.171875 11.171874 0 6.160157-5.011719 11.175782-11.171875 11.175782h-3.828125zm0-245.71875h3.828125c6.160156 0 11.171875 5.011718 11.171875 11.171874 0 6.160157-5.011719 11.175782-11.171875 11.175782h-3.828125zm-161.992188 0h94.804688v22.347656h-94.804688zm-53.222656-10.164063c0-10.539063 8.574219-19.109375 19.109375-19.109375 10.539063 0 19.109375 8.570312 19.109375 19.109375v42.675781c0 10.535156-8.570312 19.109375-19.109375 19.109375-10.535156 0-19.109375-8.574219-19.109375-19.109375zm-53.214844 0c0-10.539063 8.570313-19.109375 19.109376-19.109375 10.535156 0 19.105468 8.570312 19.105468 19.109375v42.675781c0 10.535156-8.570312 19.109375-19.105468 19.109375-10.539063 0-19.109376-8.574219-19.109376-19.109375zm-56.382812 10.164063h41.382812v22.347656h-41.382812zm0 37.347656h41.730469c2.355469 16.523437 16.59375 29.273437 33.761719 29.273437 10.75 0 20.351562-5.007812 26.605468-12.804687 6.257813 7.796875 15.859375 12.804687 26.609375 12.804687 17.167969 0 31.40625-12.75 33.761719-29.273437h95.15625v70.511718h-22.863281c-2.355469-16.527343-16.59375-29.273437-33.757813-29.273437-10.753906 0-20.351562 5.007813-26.609375 12.804687-6.257812-7.800781-15.855469-12.804687-26.609375-12.804687-17.164062 0-31.402344 12.75-33.757812 29.273437h-23.644532c-2.359374-16.527343-16.597656-29.273437-33.761718-29.273437-17.164063 0-31.402344 12.75-33.757813 29.273437h-22.863281zm257.625 85.511718v22.347657h-22.511719v-22.347657zm-37.511719 29.863282v2.648437c0 10.535157-8.570312 19.109375-19.109375 19.109375-10.535156 0-19.109375-8.574218-19.109375-19.109375v-42.675781c0-10.539062 8.574219-19.109375 19.109375-19.109375 10.539063 0 19.109375 8.570313 19.109375 19.109375v39.992188.015624zm-53.21875-40.027344v42.675781c0 10.535157-8.570312 19.109375-19.109375 19.109375-10.535156 0-19.109375-8.574218-19.109375-19.109375v-42.675781c0-10.539062 8.574219-19.109375 19.109375-19.109375 10.539063 0 19.109375 8.570313 19.109375 19.109375zm-53.21875 10.164062v22.347657h-22.945312v-22.347657zm-37.945312-10.164062v42.675781c0 10.535157-8.570313 19.109375-19.109375 19.109375-10.535156 0-19.109375-8.574218-19.109375-19.109375v-42.675781c0-10.539062 8.574219-19.109375 19.109375-19.109375 10.539062 0 19.109375 8.570313 19.109375 19.109375zm-75.730469 10.164062h22.511719v22.347657h-22.511719zm0 37.34375h22.859375c2.355469 16.527344 16.59375 29.277344 33.761719 29.277344 17.164062 0 31.402344-12.75 33.757812-29.277344h23.644532c2.355468 16.527344 16.59375 29.277344 33.761718 29.277344 10.753906 0 20.351563-5.007812 26.609375-12.808594 6.253907 7.800782 15.855469 12.808594 26.609375 12.808594 17.164063 0 31.402344-12.75 33.757813-29.277344h22.859375v70.515626h-9.554688c-2.355468-16.527344-16.59375-29.273438-33.757812-29.273438-17.167969 0-31.40625 12.746094-33.761719 29.273438h-18.761719c-4.144531 0-7.5 3.355468-7.5 7.5 0 4.140624 3.355469 7.5 7.5 7.5h18.414063v22.347656h-102.773438v-22.347656h56.359375c4.144532 0 7.5-3.359376 7.5-7.5 0-4.144532-3.355468-7.5-7.5-7.5h-56.707031c-2.359375-16.527344-16.59375-29.273438-33.761719-29.273438-17.164062 0-31.402344 12.746094-33.761718 29.273438h-9.554688zm257.625 85.515626v22.347656h-9.207031v-22.347656zm-24.207031-10.167969v42.679687c0 10.535156-8.574219 19.105469-19.109375 19.105469s-19.109375-8.570313-19.109375-19.105469v-42.679687c0-10.535157 8.574219-19.105469 19.109375-19.105469s19.109375 8.570312 19.109375 19.105469zm-170.992188 2.6875v37.304687.019532.019531 2.644531c0 10.539062-8.574219 19.109375-19.109375 19.109375s-19.109375-8.570313-19.109375-19.109375v-2.644531c0-.003907 0-.011719 0-.019531 0-.003907 0-.011719 0-.019532v-37.304687c0-.007813 0-.015625 0-.019531 0-.007813 0-.015626 0-.019532v-2.648437c0-10.535157 8.574219-19.105469 19.109375-19.105469s19.109375 8.570312 19.109375 19.105469v2.648437.019532zm-62.425781 7.480469h9.207031v22.347656h-9.207031zm0 37.347656h9.554688c2.359374 16.523437 16.597656 29.269531 33.761718 29.269531 17.164063 0 31.402344-12.746094 33.757813-29.269531h103.472656c2.355469 16.523437 16.59375 29.269531 33.757813 29.269531 17.167968 0 31.40625-12.746094 33.761718-29.269531h9.554688v63.105468h-257.621094zm-52.1875-251.003906c.214844-.703126.332031-1.445313.332031-2.214844 0-.773438-.117187-1.515625-.332031-2.214844v-32.917969c.214844-.699219.332031-1.441406.332031-2.214843 0-.769532-.117187-1.515626-.332031-2.214844v-18.910156c0-.359376.289062-.648438.648438-.648438h35.890624c.359376 0 .648438.289062.648438.648438v21.105468.019532.019531 37.308593.015626.019531 316.308593h-37.1875zm-18.828125-9.714844c-6.160156 0-11.171875-5.015625-11.171875-11.175782 0-6.160156 5.011719-11.171874 11.171875-11.171874h3.828125v22.347656zm0 122.855468c-6.160156 0-11.171875-5.011718-11.171875-11.171874 0-6.160157 5.011719-11.171876 11.171875-11.171876h3.828125v22.34375zm0 122.863282c-6.160156 0-11.171875-5.015625-11.171875-11.175782 0-6.160156 5.011719-11.171874 11.171875-11.171874h3.828125v22.347656zm440.828125 137.941406c0 2.046875-1.667969 3.714844-3.714844 3.714844h-474.570312c-2.046875 0-3.714844-1.667969-3.714844-3.714844v-41.117188c0-2.050781 1.667969-3.71875 3.714844-3.71875h474.570312c2.046875 0 3.714844 1.667969 3.714844 3.71875zm0 0"/>
</svg>