<svg id="Layer_1" enable-background="new 0 0 512 512" height="512" viewBox="0 0 512 512" width="512"
     xmlns="http://www.w3.org/2000/svg">
    <g>
        <g>
            <path d="m437.02 74.981c-48.352-48.352-112.639-74.981-181.02-74.981s-132.668 26.629-181.02 74.981c-48.353 48.352-74.98 112.639-74.98 181.019s26.629 132.668 74.98 181.02 112.637 74.98 181.016 74.98c68.383 0 132.67-26.629 181.023-74.98 48.352-48.352 74.981-112.639 74.981-181.02 0-68.38-26.629-132.667-74.98-181.019z"
                  fill="#54e360"/>
            <path d="m512 256c0-68.38-26.629-132.667-74.98-181.019-48.352-48.352-112.639-74.981-181.02-74.981v512c68.381-.001 132.668-26.63 181.02-74.98 48.351-48.352 74.98-112.639 74.98-181.02z"
                  fill="#00b44b"/>
            <path d="m391.576 154.507c-8.904-8.903-20.74-13.807-33.332-13.807-12.59 0-24.426 4.904-33.324 13.807l-103.002 103.003-34.838-34.839c-8.902-8.902-20.738-13.805-33.328-13.805-12.588 0-24.424 4.902-33.326 13.805-18.379 18.378-18.379 48.28 0 66.658l68.164 68.164c8.9 8.901 20.736 13.805 33.326 13.805h.002c12.592 0 24.428-4.905 33.326-13.809l136.332-136.328c18.377-18.377 18.377-48.277 0-66.654z"
                  fill="#e7f0ef"/>
        </g>
        <path d="m391.576 154.507c-8.904-8.903-20.74-13.807-33.332-13.807-12.59 0-24.426 4.904-33.324 13.807l-68.92 68.921v133.305l135.576-135.571c18.377-18.378 18.377-48.278 0-66.655z"
              fill="#c5e1e6"/>
    </g>
</svg>