<svg id="Capa_1" enable-background="new 0 0 512 512" height="512" viewBox="0 0 512 512" width="512"
     xmlns="http://www.w3.org/2000/svg">
    <g>
        <g>
            <g>
                <g>
                    <g>
                        <g>
                            <g>
                                <g>
                                    <g>
                                        <g>
                                            <g>
                                                <g>
                                                    <g>
                                                        <g>
                                                            <g>
                                                                <circle cx="256" cy="256" fill="#ff6379" r="256"/>
                                                            </g>
                                                        </g>
                                                    </g>
                                                </g>
                                            </g>
                                        </g>
                                    </g>
                                </g>
                            </g>
                        </g>
                    </g>
                </g>
            </g>
        </g>
        <path d="m342.872 177.827-43.532-43.532h-91.765l-44.443 25.748-23.703 66.171v59.257l19.752 63.208-.839 25.466 140.424 134.28c121.024-20.357 213.234-125.614 213.234-252.425 0-6.567-.249-13.075-.735-19.517l-119.097-119.097z"
              fill="#ff415b"/>
        <g>
            <path d="m338.525 117.386-10.307 64.789c-7.254-19.798-16.957-35.898-28.878-47.881-16.817-16.904-37.559-25.476-61.649-25.476-43.193 0-76.82 20.137-97.243 58.234-18.607 34.71-20.616 73.767-20.616 88.947l19.313 20 16.481-20c0-9.736 1.181-43.703 16.369-72.036 14.195-26.479 35.684-39.351 65.696-39.351 39.465 0 53.157 39.078 57.657 51.92 9.197 26.249 10.806 53.258 11.046 58.822-.022.189-.048.407-.076.645l20.115 20 15.793-20-.008-.368c0-.015-.001-.053-.002-.074l49.951-138.171z"
                  fill="#f5f5f8"/>
            <path d="m342.226 256h-35.908c-1.693 14.036-15.615 111.387-75.291 111.387-28.392 0-48.36-12.668-61.045-38.728-12.49-25.658-14.355-56.536-14.355-72.659h-35.794c0 19.203 2.334 56.213 17.966 88.325 18.743 38.504 50.981 58.856 93.229 58.856 28.672 0 68.205-13.149 93.713-75.789.471-1.156.928-2.312 1.375-3.466l12.41 70.688h53.643l-49.931-138.117z"
                  fill="#e2e2eb"/>
        </g>
    </g>
</svg>