<svg id="Capa_1" enable-background="new 0 0 512 512" height="512" viewBox="0 0 512 512" width="512"
     xmlns="http://www.w3.org/2000/svg">
    <g>
        <g>
            <g>
                <g>
                    <g>
                        <g id="XMLID_3603_">
                            <g id="XMLID_3604_">
                                <g id="XMLID_3605_">
                                    <g id="XMLID_3606_">
                                        <g id="XMLID_3607_">
                                            <g id="XMLID_3608_">
                                                <g id="XMLID_3609_">
                                                    <g id="XMLID_3610_">
                                                        <g id="XMLID_3791_">
                                                            <g id="XMLID_3792_">
                                                                <g id="XMLID_3793_">
                                                                    <g id="XMLID_3794_">
                                                                        <g id="XMLID_3795_">
                                                                            <g id="XMLID_3796_">
                                                                                <g id="XMLID_3797_">
                                                                                    <circle cx="256" cy="256"
                                                                                            fill="#4f4f4f" r="256"/>
                                                                                </g>
                                                                            </g>
                                                                        </g>
                                                                    </g>
                                                                </g>
                                                            </g>
                                                        </g>
                                                    </g>
                                                </g>
                                            </g>
                                        </g>
                                    </g>
                                </g>
                            </g>
                        </g>
                    </g>
                </g>
            </g>
        </g>
        <path d="m511.999 256.079-53.014-53.014-100.245 4.187-1.573-1.573 24.628-13.788-82.533-82.533-71.596 77.885-99.946-99.947-38 332.101 76.339 76.339c27.984 10.504 58.288 16.264 89.941 16.264 141.358 0 255.956-114.572 255.999-255.921z"
              fill="#232323"/>
        <path d="m165.391 271.112h50.771v114.426h-50.771z" fill="#f2518e"/>
        <path d="m252.512 228.855h50.771v156.683h-50.771z" fill="#ffe471"/>
        <path d="m277.898 228.855h25.386v156.683h-25.386z" fill="#f9ba3a"/>
        <path d="m339.633 271.112h50.771v114.426h-50.771z" fill="#c42a6f"/>
        <path d="m458.985 203.065-48-28.618v13.618h-63.176l-69.932-85.349-69.679 85.349h-88.512v30h102.748l55.485-67.962 55.686 67.962h77.38v13.618z"
              fill="#fff"/>
        <g>
            <g>
                <path d="m458.985 203.065-48-28.618v13.618h-63.176l-69.911-85.323v47.387l.021-.026 55.686 67.962h77.38v13.618z"
                      fill="#e0e0e0"/>
            </g>
        </g>
        <g>
            <path d="m127.72 381.397v-294.101h-38v332.101h332.101v-38z" fill="#abe9ff"/>
            <g>
                <g>
                    <g>
                        <path d="m277.898 381.397h143.924v38h-143.924z" fill="#5ac4ff"/>
                    </g>
                </g>
            </g>
        </g>
    </g>
</svg>