<svg enable-background="new 0 0 44.88 58" height="512" viewBox="0 0 44.88 58" width="512"
     xmlns="http://www.w3.org/2000/svg">
    <path d="m41.03 25.95c.23 1.05-.78 9.47-6.67 9.47-.26 0-.51-.01-.75-.04-5.42-.64-4.23-8.23-4.12-9.45.67-7.28 5.13-21.78-13.05-25.93h-.14c-.31 0-.62.01-.91.04.1.09.22.16.29.27 6.13 8.77 3.33 13.7 2.37 17.55-1.25 5.02-12.92 17.06-14.2 5.52-.85 1.49-2.6 6.11-3.08 7.79-.5 1.8-.77 3.71-.77 5.68 0 5.19 1.87 9.95 4.99 13.63 2.56 3.04 5.96 5.35 9.85 6.56-2.36-1.05-4.28-2.9-5.42-5.22-.76-1.49-1.17-3.17-1.17-4.95 0-1.02.15-2.03.41-2.98.25-.88 1.17-3.31 1.61-4.09.68 6.07 6.81-.26 7.48-2.9.5-2.03 1.97-4.61-1.26-9.23-.03-.05-.1-.1-.15-.14.15-.01.32-.02.48-.02h.08c9.55 2.18 7.21 9.81 6.86 13.63-.07.67-.74 4.99 2.56 4.99 3.09 0 3.63-4.44 3.51-4.98.34.34.86.85 1.28 1.71.42.85.74 2.02.74 3.68 0 5.9-5.86 11.05-11.76 11.43.36.02.71.03 1.07.03 11.68 0 23.72-10.12 23.72-21.79 0-6.42-2.57-8.98-3.85-10.26z"
          fill="#e47c00"/>
    <path d="m31.11 42.86c-.42-.86-.94-1.37-1.28-1.71.12.54-.42 4.98-3.51 4.98-3.3 0-2.63-4.32-2.56-4.99.35-3.82 2.69-11.45-6.86-13.63h-.08c-.16 0-.33.01-.48.02.05.04.12.09.15.14 3.23 4.62 1.76 7.2 1.26 9.23-.67 2.64-6.8 8.97-7.48 2.9-.44.78-1.36 3.21-1.61 4.09-.26.95-.41 1.96-.41 2.98 0 1.78.41 3.46 1.17 4.95 1.14 2.32 3.06 4.17 5.42 5.22.01 0 .01.01.02.01.02 0 .03.01.04.01 1.65.51 3.38.82 5.17.91h.02c5.9-.38 11.76-5.53 11.76-11.43 0-1.66-.32-2.83-.74-3.68z"
          fill="#f7d300"/>
    <path d="m21.16 58c-.36 0-.71-.01-1.07-.03 5.9-.38 11.76-5.53 11.76-11.43 0-1.66-.32-2.83-.74-3.68 1.05-2.06 1.9-4.53 2.5-7.48.24.03.49.04.75.04 5.89 0 6.9-8.42 6.67-9.47 1.28 1.28 3.85 3.84 3.85 10.26 0 11.67-12.04 21.79-23.72 21.79z"
          fill="#d16d00"/>
    <path d="m31.85 46.54c0 5.9-5.86 11.05-11.76 11.43-.01 0-.02 0-.02 0-1.79-.09-3.52-.4-5.17-.91-.01 0-.02-.01-.04-.01-.01 0-.01-.01-.02-.01-2.36-1.05-4.28-2.9-5.42-5.22 5.94 1.31 16.31 1.75 21.69-8.96.42.85.74 2.02.74 3.68z"
          fill="#e0bb05"/>
    <path d="m9.42 51.82c1.14 2.32 3.06 4.17 5.42 5.22-3.89-1.21-7.29-3.52-9.85-6.56.25.1 1.95.79 4.43 1.34z"
          fill="#d16d00"/>
</svg>