<svg id="Layer_1" enable-background="new 0 0 512.002 512.002" height="512" viewBox="0 0 512.002 512.002" width="512"
     xmlns="http://www.w3.org/2000/svg">
    <g>
        <g>
            <path d="m437.021 74.982c-48.353-48.352-112.64-74.981-181.019-74.981-68.381 0-132.669 26.629-181.021 74.981-48.351 48.352-74.98 112.639-74.981 181.019.001 68.381 26.63 132.668 74.981 181.02s112.638 74.98 181.018 74.98c68.381 0 132.669-26.629 181.021-74.98s74.981-112.639 74.981-181.02c.001-68.38-26.628-132.667-74.98-181.019z"
                  fill="#ff5b5b"/>
            <path d="m512.002 256.001c0-68.38-26.629-132.667-74.981-181.019-48.353-48.352-112.64-74.981-181.019-74.981v512c68.38-.001 132.667-26.63 181.019-74.98 48.352-48.352 74.981-112.639 74.981-181.02z"
                  fill="#ff0059"/>
            <path d="m322.657 255.997 46.195-46.196c8.903-8.9 13.807-20.736 13.807-33.327s-4.902-24.427-13.805-33.329-20.738-13.805-33.328-13.805c-12.591 0-24.427 4.902-33.326 13.805l-46.198 46.198-46.198-46.198c-8.902-8.902-20.738-13.805-33.328-13.805s-24.426 4.902-33.33 13.805c-8.901 8.902-13.804 20.739-13.804 33.329.001 12.591 4.904 24.426 13.806 33.323l46.2 46.2-46.202 46.2c-18.375 18.38-18.374 48.282.001 66.656 8.902 8.902 20.737 13.805 33.327 13.805 12.593 0 24.431-4.905 33.329-13.809l46.197-46.197 46.199 46.2c8.901 8.903 20.737 13.806 33.328 13.806 12.59 0 24.426-4.902 33.326-13.804 18.379-18.376 18.381-48.279.003-66.659z"
                  fill="#e7f0ef"/>
        </g>
        <path d="m335.527 382.658c12.59 0 24.426-4.902 33.326-13.804 18.379-18.376 18.381-48.279.003-66.659l-46.199-46.198 46.195-46.196c8.903-8.9 13.807-20.736 13.807-33.327s-4.902-24.427-13.805-33.329-20.738-13.805-33.328-13.805c-12.591 0-24.427 4.902-33.326 13.805l-46.198 46.198v133.312l46.197 46.198c8.902 8.903 20.738 13.805 33.328 13.805z"
              fill="#c5e1e6"/>
    </g>
</svg>