<svg height="512" viewBox="0 0 520 520" width="512" xmlns="http://www.w3.org/2000/svg">
    <g id="_7-Check" data-name="7-Check">
        <path d="m199.078 473.954a41.224 41.224 0 0 1 -32.441-15.5l-113.88-139.504a45.67 45.67 0 0 1 33.929-74.529c.489-.015.981-.023 1.471-.023a45.552 45.552 0 0 1 30.717 11.892l77.239 70.288a12 12 0 0 0 8.076 3.125q.324 0 .648-.018a12 12 0 0 0 8.339-4.029l236.835-267.589q.156-.177.306-.36a13.234 13.234 0 0 1 9.441-4.839c.318-.021.646-.033.973-.033a13.222 13.222 0 0 1 9.125 3.592c4.524 4.189 6 11.326 3.227 15.586-.047.072-236.657 381.132-236.657 381.132-8.138 12.428-20.89 19.988-35 20.746-.782.042-1.57.063-2.344.063z"
              fill="#b0ef8f"/>
        <path d="m460.734 64.835a1.245 1.245 0 0 1 .969.4 2.69 2.69 0 0 1 .705 1.218l-236.1 380.234c-6.109 9.264-15.169 14.668-25.532 15.224-.568.031-1.141.046-1.705.046a29.43 29.43 0 0 1 -23.143-11.09l-113.88-139.5a33.671 33.671 0 0 1 25.012-54.952q.549-.017 1.1-.017a33.575 33.575 0 0 1 22.642 8.768l77.239 70.287a24 24 0 0 0 16.152 6.25c.431 0 .864-.012 1.3-.035a24.005 24.005 0 0 0 16.677-8.059l236.83-267.589q.314-.354.613-.72a1.169 1.169 0 0 1 .954-.459c.057 0 .114-.006.17-.006m0-24c-.6 0-1.2.02-1.8.062a25.176 25.176 0 0 0 -17.9 9.217l-236.847 267.586-77.239-70.288a57.38 57.38 0 0 0 -38.795-15.012q-.923 0-1.85.029a57.67 57.67 0 0 0 -42.845 94.111l113.881 139.5a53.451 53.451 0 0 0 41.736 19.913q1.486 0 2.987-.08c18.021-.968 34.224-10.531 44.484-26.284l236.589-381.027c5.968-9.161 3.715-22.751-5.129-30.94a25.231 25.231 0 0 0 -17.279-6.787z"
              fill="#009045"/>
    </g>
</svg>