<svg fill="none" height="512" viewBox="0 0 24 24" width="512" xmlns="http://www.w3.org/2000/svg"
>
    <linearGradient id="paint0_linear_16_1654" gradientUnits="userSpaceOnUse" x1="12.667" x2="12.667" y1="-.358"
                    y2="24.033">
        <stop offset="0" stop-color="#ce9ffc"/>
        <stop offset=".979167" stop-color="#7367f0"/>
    </linearGradient>
    <path d="m4 18h5.5v1.25c0 .7293-.28973 1.4288-.80546 1.9445-.51572.5158-1.21519.8055-1.94454.8055s-1.42882-.2897-1.94454-.8055c-.51573-.5157-.80546-1.2152-.80546-1.9445zm4-11.88c2 0 3 2.88 3 4.88 0 1-.5 2-1 3.5l-.5 1.5h-5.5c0-1-.5-2.5-.5-5s1.998-4.88 4.5-4.88zm12.054 7.978-.217 1.231c-.1266.7183-.5335 1.357-1.1309 1.7753-.5975.4184-1.3368.5823-2.0551.4557s-1.3569-.5335-1.7753-1.1309c-.4184-.5975-.5823-1.3368-.4557-2.0551l.218-1.23zm-1.876-12.393c2.464.434 4.018 3.124 3.584 5.586-.434 2.463-1.187 3.853-1.36 4.838l-5.417-.955-.232-1.564c-.232-1.564-.55-2.636-.377-3.62.347-1.97 1.832-4.632 3.802-4.285z"
          fill="url(#paint0_linear_16_1654)"/>
</svg>