<svg id="Capa_1" enable-background="new 0 0 512 512" height="512" viewBox="0 0 512 512" width="512"
     xmlns="http://www.w3.org/2000/svg">
    <g>
        <g>
            <path d="m481.941 145.098c-9.456-58.835-57.793-104.251-119.355-104.249-52.979.001-99.3 39.18-106.586 90.144-7.285-50.965-53.607-90.143-106.586-90.144-61.562-.001-109.9 45.414-119.355 104.249-2.565 15.954-2.743 32.267-.906 48.311 6.769 59.108 44.099 102.015 83.773 143.454 37.17 38.824 122.818 117.355 140.029 133.086 1.726 1.577 4.364 1.577 6.09 0 17.211-15.731 102.859-94.262 140.029-133.086 39.673-41.439 77.004-84.345 83.773-143.454 1.837-16.044 1.659-32.357-.906-48.311z"
                  fill="#fe646f"/>
        </g>
        <g>
            <path d="m482.851 193.405c-6.769 59.111-44.106 102.019-83.78 143.46-37.168 38.825-122.815 117.354-140.026 133.087-1.727 1.577-4.363 1.577-6.09 0-2.466-2.246-6.319-5.78-11.241-10.293 23.441-21.464 101.3-93.124 136.262-129.643 39.674-41.431 77.001-84.339 83.77-143.45 1.837-16.043 1.657-32.356-.909-48.309-6.838-42.589-34.053-78.139-71.9-94.522 48.649 10.832 84.948 51.224 93.005 101.36 2.566 15.954 2.746 32.266.909 48.31z"
                  fill="#fd4755"/>
        </g>
        <g>
            <g>
                <path d="m230.112 392.487c-.045 0-.09 0-.135-.001-7.679-.059-14.419-5.124-16.611-12.484l-34.764-116.757-29.025 54.045c-3.044 5.669-8.958 9.205-15.392 9.205h-109.227c-9.649 0-17.471-7.822-17.471-17.471s7.822-17.471 17.471-17.471h98.779l44.127-82.167c3.348-6.236 10.125-9.843 17.166-9.115 7.039.719 12.951 5.613 14.97 12.394l30.567 102.66 49.392-157.062c2.292-7.289 9.049-12.23 16.664-12.23.112 0 .223.001.336.003 7.752.148 14.479 5.386 16.52 12.866l25.152 92.12 14.333-22.464c3.173-4.974 8.643-8.01 14.542-8.072.062-.001.125-.001.187-.001 5.829 0 11.279 2.908 14.524 7.761l32.037 47.929h72.786c9.649 0 17.471 7.822 17.471 17.471s-7.822 17.471-17.471 17.471h-82.122c-5.834 0-11.283-2.912-14.525-7.761l-22.361-33.453-21.146 33.141c-3.718 5.826-10.526 8.911-17.351 7.876-6.832-1.037-12.411-6.005-14.231-12.671l-19.862-72.745-48.667 154.754c-2.289 7.281-9.04 12.228-16.663 12.229z"
                      fill="#f8f6f6"/>
            </g>
        </g>
        <g>
            <g>
                <path d="m161.591 274.759 3.861 12.968-15.873 29.56c-3.044 5.668-8.957 9.205-15.391 9.205h-20.439c6.429 0 12.349-3.534 15.394-9.205l23.339-43.459c2.09-3.893 7.848-3.305 9.109.931z"
                      fill="#ebebeb"/>
            </g>
            <g>
                <path d="m220.629 281.946-5.648 17.954c-1.466 4.659-8.077 4.608-9.47-.073l-25.953-87.165c-1.128-3.784-3.464-6.968-6.529-9.175 3.404-2.466 7.647-3.664 12-3.215 7.038.719 12.948 5.611 14.975 12.389z"
                      fill="#ebebeb"/>
            </g>
            <g>
                <path d="m279.449 241.775 5.053 18.517-37.727 119.969c-2.286 7.278-9.045 12.22-16.662 12.23-.05 0-.09 0-.14-.01-3.724-.02-7.208-1.228-10.083-3.295 2.985-2.156 5.291-5.241 6.449-8.925l43.608-138.668c1.483-4.715 8.201-4.586 9.502.182z"
                      fill="#ebebeb"/>
            </g>
            <g>
                <path d="m332.502 228.586-8.297 13.016c-2.31 3.623-7.821 2.788-8.953-1.357l-22.213-81.343c-1.078-3.953-3.464-7.288-6.629-9.564 2.905-2.096 6.459-3.305 10.213-3.305h.339c7.747.15 14.476 5.391 16.522 12.869z"
                      fill="#ebebeb"/>
            </g>
            <g>
                <path d="m382.219 228.246 32.036 47.93h-17.789c-1.654 0-3.198-.825-4.117-2.2l-30.566-45.73c-1.168-1.757-2.635-3.265-4.313-4.453 2.875-2.087 6.369-3.265 10.033-3.305h.19c5.83.001 11.281 2.907 14.526 7.758z"
                      fill="#ebebeb"/>
            </g>
            <g>
                <path d="m504.514 293.647c0 9.654-7.827 17.471-17.471 17.471h-20.446c9.654 0 17.471-7.817 17.471-17.471 0-9.644-7.817-17.471-17.471-17.471h20.446c9.645 0 17.471 7.827 17.471 17.471z"
                      fill="#ebebeb"/>
            </g>
        </g>
        <path d="m487.042 268.689h-22.976c12.535-20.798 21.757-43.377 25.523-69.084.599-4.092-2.232-7.894-6.323-8.494-4.092-.595-7.894 2.233-8.494 6.323-3.886 26.533-14.317 49.754-28.443 71.254h-28.073l-29.814-44.602c-4.641-6.943-12.398-11.088-20.748-11.088l-.266.002c-8.458.09-16.225 4.401-20.775 11.533l-5.248 8.224-20.703-75.824c-2.897-10.612-12.602-18.171-23.614-18.381l-.466-.004c-10.953 0-20.52 7.021-23.806 17.471l-42.054 133.728-8.596-28.871c-1.18-3.963-5.348-6.218-9.313-5.039-3.964 1.181-6.22 5.349-5.039 9.313l15.576 52.315c.939 3.154 3.828 5.325 7.119 5.35 3.276-.013 6.212-2.101 7.2-5.241l49.392-157.063c1.314-4.179 5.14-6.988 9.521-6.988l.193.002c4.4.084 8.282 3.107 9.44 7.352 0 0 25.056 91.766 25.152 92.119 1.664 6.096 10.143 7.376 13.536 2.056l14.333-22.464c1.82-2.853 4.926-4.577 8.309-4.612.013-.001.096-.001.108-.001 3.34 0 6.442 1.658 8.299 4.435l32.037 47.928c1.389 2.079 3.725 3.326 6.225 3.326h72.786c5.505 0 9.983 4.479 9.983 9.983s-4.478 9.983-9.983 9.983h-82.122c-3.341 0-6.443-1.658-8.3-4.435l-22.361-33.453c-1.39-2.079-3.726-3.326-6.225-3.326-.026 0-.053 0-.079 0-2.529.027-4.872 1.329-6.233 3.46l-21.146 33.14c-4.568 7.161-15.811 5.449-18.047-2.74-.035-.127-19.862-72.745-19.862-72.745-.875-3.206-3.758-5.451-7.08-5.514-.048-.001-.096-.001-.144-.001-3.264 0-6.159 2.118-7.141 5.241l-48.667 154.754c-1.315 4.179-5.142 6.987-9.496 6.989-.035-.001-.069-.002-.104-.002-4.417-.033-8.231-2.9-9.492-7.134l-34.764-116.757c-.865-2.906-3.399-5.003-6.416-5.312-3.017-.306-5.922 1.234-7.357 3.906l-29.025 54.046c-1.742 3.245-5.113 5.26-8.795 5.26h-109.226c-5.505 0-9.983-4.479-9.983-9.983 0-5.505 4.478-9.983 9.983-9.983h98.779c2.758 0 5.292-1.516 6.596-3.945l44.127-82.168c1.923-3.582 5.772-5.632 9.809-5.208 4.038.412 7.396 3.193 8.555 7.083l5.041 16.932c1.18 3.964 5.349 6.219 9.313 5.041 3.963-1.181 6.22-5.35 5.039-9.313l-5.041-16.934c-2.896-9.726-11.291-16.675-21.376-17.705-10.089-1.055-19.725 4.065-24.533 13.019l-42.008 78.223h-42.67c-20.558-27.084-35.98-56.435-39.997-91.511-1.816-15.859-1.527-31.426.859-46.269 4.37-27.19 17.77-51.976 37.731-69.791 20.642-18.423 46.311-28.161 74.231-28.16 23.855 0 47.149 8.591 65.593 24.19 18.391 15.555 30.317 36.695 33.581 59.526.527 3.688 3.686 6.428 7.412 6.428s6.885-2.74 7.412-6.428c3.264-22.832 15.19-43.971 33.581-59.526 18.444-15.599 41.738-24.19 65.593-24.19 27.921-.001 53.59 9.737 74.231 28.16 19.961 17.815 33.361 42.601 37.731 69.791.942 5.864 1.565 11.921 1.849 18.004.193 4.131 3.708 7.305 7.829 7.13 4.131-.194 7.323-3.699 7.129-7.83-.311-6.642-.992-13.264-2.023-19.681-4.914-30.577-20.024-58.486-42.545-78.586-23.095-20.612-52.999-31.963-84.203-31.962-27.391 0-54.119 9.849-75.263 27.731-13.856 11.72-24.533 26.225-31.323 42.26-6.79-16.036-17.466-30.541-31.323-42.26-21.144-17.882-47.873-27.731-75.267-27.731-31.202 0-61.106 11.351-84.199 31.962-22.521 20.1-37.63 48.01-42.545 78.586-2.604 16.193-2.924 33.133-.952 50.35 3.945 34.454 17.651 63.388 36.26 89.807h-33.013c-13.762.001-24.958 11.197-24.958 24.959s11.196 24.958 24.958 24.958h74.917c2.53 2.69 5.076 5.376 7.642 8.057 37.367 39.03 123.499 118.001 140.386 133.434 2.308 2.11 5.202 3.165 8.097 3.165 2.894 0 5.789-1.055 8.097-3.164 16.89-15.437 103.034-94.422 140.386-133.435 7.426-7.756 14.718-15.539 21.751-23.434h60.808c13.762 0 24.958-11.196 24.958-24.958s-11.196-24.959-24.958-24.959zm-93.376 62.996c-35.733 37.322-116.921 111.92-137.666 130.902-20.325-18.598-98.676-90.586-135.452-128.603h13.638c9.207 0 17.633-5.04 21.988-13.15l20.434-38.049 29.582 99.354c3.151 10.583 12.688 17.75 23.73 17.834v-.001l.193.002c10.953-.001 20.52-7.022 23.806-17.471l41.017-130.429 13.146 48.147c2.598 9.515 10.578 16.621 20.331 18.102 9.747 1.482 19.48-2.937 24.786-11.251l14.98-23.476 15.99 23.922c4.641 6.943 12.398 11.088 20.749 11.088h1.077c-4.052 4.375-8.166 8.731-12.329 13.079z"/>
    </g>
</svg>