<?xml version="1.0" encoding="iso-8859-1"?>
<!-- Generator: Adobe Illustrator 19.0.0, SVG Export Plug-In . SVG Version: 6.00 Build 0)  -->
<svg version="1.1" id="Capa_1" xmlns="http://www.w3.org/2000/svg" x="0px" y="0px"
     viewBox="0 0 511.999 511.999" style="enable-background:new 0 0 511.999 511.999;" xml:space="preserve">
<circle style="fill:#FFF082;" cx="264.258" cy="255.929" r="239.55"/>
    <circle style="fill:#FFDC64;" cx="264.258" cy="255.929" r="206.5"/>
    <g>
	<circle style="fill:#FFC850;" cx="264.258" cy="255.929" r="99.12"/>
        <path style="fill:#FFC850;" d="M264.258,255.932V8.327c0-4.64-3.838-8.474-8.475-8.323C112.325,4.668-1.301,127.335,8.819,274.091
		c8.743,126.799,111.846,229.303,238.69,237.374c74.235,4.724,142.215-22.206,191.748-68.594c3.382-3.167,3.373-8.567,0.097-11.843
		L264.258,255.932z"/>
</g>
    <path style="fill:#EBAF4B;" d="M264.258,255.932V49.427c-114.05,0-206.505,92.456-206.505,206.505s92.455,206.506,206.505,206.506
	c57.025,0,108.651-23.114,146.021-60.484L264.258,255.932z"/>
    <path style="fill:#E1963C;" d="M334.349,326.023l-70.09-70.09V156.81c-54.744,0-99.123,44.378-99.123,99.123
	c0,54.744,44.378,99.123,99.123,99.123C291.63,355.055,316.411,343.96,334.349,326.023z"/>
    <path style="fill:#FFFFFF;" d="M338.6,379.836V335.7c0-8.763-3.481-17.167-9.677-23.363l-38.882-38.882
	c-9.677-9.677-9.677-25.368,0-35.045l38.882-38.882c6.196-6.196,9.677-14.6,9.677-23.363v-44.136H189.916v44.136
	c0,8.763,3.481,17.167,9.677,23.363l38.882,38.882c9.677,9.677,9.677,25.368,0,35.045l-38.882,38.882
	c-6.196,6.196-9.677,14.6-9.677,23.363v44.136"/>
    <path style="fill:#FFF8D7;" d="M338.6,148.55v-16.52H189.916v44.136c0,8.763,3.481,17.167,9.677,23.363l38.881,38.881
	c9.677,9.677,9.677,25.368,0,35.045l-38.882,38.882c-6.196,6.196-9.677,14.601-9.677,23.364v44.135h49.561v-44.135
	c0-8.763,1.161-17.167,3.226-23.363l12.961-38.882c3.212-9.637,3.212-25.407,0-35.045l-12.961-38.882
	c-2.065-6.197-3.226-14.601-3.226-23.363v-15.225c0-6.843,5.547-12.39,12.39-12.39L338.6,148.55L338.6,148.55z"/>
    <path style="fill:#FFC850;" d="M317.242,324.019l-5.425-5.425c-3.098-3.099-7.301-4.84-11.683-4.84h-11.095
	c-9.124,0-16.52-7.396-16.52-16.52V235c0-2.249,0.917-4.4,2.539-5.958l24.868-23.881c2.602-2.601,0.759-7.05-2.92-7.05h-65.495
	c-3.679,0-5.522,4.449-2.92,7.05l24.868,23.881c1.622,1.558,2.539,3.709,2.539,5.958v62.234c0,9.124-7.396,16.52-16.52,16.52
	h-11.096c-4.381,0-8.583,1.741-11.682,4.839l-5.426,5.426c-3.098,3.098-4.838,7.3-4.838,11.681v19.355c0,4.562,3.698,8.26,8.26,8.26
	h99.123c4.562,0,8.26-3.698,8.26-8.26v-19.356C322.08,331.318,320.339,327.117,317.242,324.019z"/>
    <g>
	<path style="fill:#EBAF4B;" d="M228.591,205.161l23.518,22.585l-9.406-28.218c-0.145-0.436-0.251-0.96-0.387-1.417h-10.805
		C227.831,198.111,225.989,202.56,228.591,205.161z"/>
        <path style="fill:#EBAF4B;" d="M239.478,335.7c0-8.274,1.065-16.163,2.919-22.241c-0.951,0.17-1.919,0.294-2.919,0.294h-11.096
		c-4.381,0-8.583,1.74-11.681,4.839l-5.426,5.426c-3.098,3.098-4.838,7.3-4.838,11.681v19.355c0,4.562,3.698,8.26,8.26,8.26h24.781
		L239.478,335.7L239.478,335.7z"/>
</g>
    <path style="fill:#A07864;" d="M338.6,132.029H189.916c-4.562,0-8.26-3.698-8.26-8.26v-16.52c0-4.562,3.698-8.26,8.26-8.26H338.6
	c4.562,0,8.26,3.698,8.26,8.26v16.52C346.86,128.331,343.162,132.029,338.6,132.029z"/>
    <path style="fill:#8F6957;" d="M239.478,123.769v-16.52c0-4.562,3.698-8.26,8.26-8.26h-57.822c-4.562,0-8.26,3.698-8.26,8.26v16.52
	c0,4.562,3.698,8.26,8.26,8.26h57.822C243.176,132.029,239.478,128.331,239.478,123.769z"/>
    <path style="fill:#A07864;" d="M338.6,412.876H189.916c-4.562,0-8.26-3.698-8.26-8.26v-16.52c0-4.562,3.698-8.26,8.26-8.26H338.6
	c4.562,0,8.26,3.698,8.26,8.26v16.52C346.86,409.178,343.162,412.876,338.6,412.876z"/>
    <path style="fill:#8F6957;" d="M239.478,404.616v-16.52c0-4.562,3.698-8.26,8.26-8.26h-57.822c-4.562,0-8.26,3.698-8.26,8.26v16.52
	c0,4.562,3.698,8.26,8.26,8.26h57.822C243.176,412.876,239.478,409.178,239.478,404.616z"/>
    <g>
</g>
    <g>
</g>
    <g>
</g>
    <g>
</g>
    <g>
</g>
    <g>
</g>
    <g>
</g>
    <g>
</g>
    <g>
</g>
    <g>
</g>
    <g>
</g>
    <g>
</g>
    <g>
</g>
    <g>
</g>
    <g>
</g>
</svg>
