<svg id="Layer_1" enable-background="new 0 0 152 152" height="512" viewBox="0 0 152 152" width="512"
     xmlns="http://www.w3.org/2000/svg">
    <linearGradient id="Icon_1_" gradientUnits="userSpaceOnUse" x1="29.4" x2="119.939" y1="49.568" y2="140.107">
        <stop offset="0" stop-color="#42a5f5"/>
        <stop offset="1" stop-color="#1565c0"/>
    </linearGradient>
    <path id="Icon"
          d="m46.3 129.1c0 4.1-3.4 7.4-7.4 7.4h-20.5c-4.1 0-7.4-3.3-7.4-7.4v-58.1c0-4.1 3.3-7.4 7.4-7.4h20.4c4.1 0 7.4 3.3 7.4 7.4v58.1zm86.8-45.6c4.4 3.5 5.1 9.9 1.6 14.3-1.4 1.8-3.4 3-5.6 3.5 4.4 3.5 5.1 9.9 1.6 14.2-1.4 1.8-3.4 3-5.7 3.6 4.4 3.5 5.1 9.9 1.5 14.3-1.9 2.4-4.8 3.8-7.9 3.8l-57.5-.6c-4.1 0-7.4-3.3-7.4-7.4v-58.2c0-9.2 29.4-26.1 30.9-35.2 1-6-.3-21 3.7-21 6.9 0 15.6 2.6 15.6 17.8 0 13.4-8.8 30.8-8.8 30.8h35.6c5.6 0 10.1 4.5 10.1 10.1.2 4.9-3.1 9-7.7 10z"
          fill="url(#Icon_1_)"/>
</svg>