<svg height="512" viewBox="0 0 60 60" width="512" xmlns="http://www.w3.org/2000/svg">
    <g id="Page-1" fill="none" fill-rule="evenodd">
        <g id="002---Search" transform="translate(-1)">
            <path id="Path"
                  d="m48 24c.0051025 5.4085931-1.9043146 10.6444344-5.39 14.78-.8511851 1.0311881-1.7988119 1.9788149-2.83 2.83-8.2608877 6.9258509-20.2246105 7.1820027-28.7743666.6160797-8.5497562-6.5659231-11.38942303-18.1905766-6.82978169-27.9588593 4.55964134-9.76828273 15.29405339-15.05682441 25.81770869-12.71965595s18.0103205 11.67237705 18.0064396 22.45243555z"
                  fill="#9e9e9e"/>
            <path id="Path"
                  d="m25 1c-.5 0-1 .022-1.5.054 8.649854.56012699 16.2489839 5.93874822 19.6530571 13.9103228 3.4040732 7.9715746 2.0341006 17.1802399-3.5430571 23.8156772-.8511851 1.0311881-1.7988119 1.9788149-2.83 2.83-3.7739107 3.170916-8.4702408 5.0394879-13.391 5.328.533.036 1.069.062 1.611.062 5.4085931.0051025 10.6444344-1.9043146 14.78-5.39 1.0311881-.8511851 1.9788149-1.7988119 2.83-2.83 5.7516607-6.8435355 7.0145025-16.4007874 3.2377362-24.5033559-3.7767663-8.1025684-11.9081859-13.28097064-20.8477362-13.2766441z"
                  fill="#707070"/>
            <circle id="Oval" cx="25" cy="24" fill="#02a9f4" r="19"/>
            <path id="Path"
                  d="m25 5c-.506 0-1 .037-1.5.076 9.8781364.77398056 17.4992499 9.0155882 17.4992499 18.924s-7.6211135 18.1500194-17.4992499 18.924c.5.039.994.076 1.5.076 10.4934102 0 19-8.5065898 19-19s-8.5065898-19-19-19z"
                  fill="#0377bc"/>
            <path id="Path"
                  d="m58.83 57.83c-1.5642825 1.5597839-4.0957175 1.5597839-5.66 0l-10.61-10.61c-.3877236-.3900375-.3877236-1.0199625 0-1.41l4.25-4.25c.3900375-.3877236 1.0199625-.3877236 1.41 0l10.61 10.61c1.5597839 1.5642825 1.5597839 4.0957175 0 5.66z"
                  fill="#f44335"/>
            <path id="Path"
                  d="m58.83 52.17-10.61-10.61c-.3900375-.3877236-1.0199625-.3877236-1.41 0l-.8.795 9.82 9.815c.9498669.9489879 1.3602427 2.3112392 1.0926251 3.6269922s-1.1775242 2.4094654-2.4226251 2.9120078c1.7645101.7175623 3.7902399.091299 4.8419141-1.496899s.8375027-3.6976808-.5119141-5.042101z"
                  fill="#c81e1e"/>
            <path id="Path" d="m46.1 42.27-2.83 2.83-3.49-3.49c1.0311881-.8511851 1.9788149-1.7988119 2.83-2.83z"
                  fill="#7f8e94"/>
            <path id="Rectangle" d="m44.929 45.929h8v4h-8z" fill="#c81e1e"
                  transform="matrix(.707 -.707 .707 .707 -19.56 48.636)"/>
            <path id="Path"
                  d="m16 13c-.4304304 0-.8125693-.2754301-.9486833-.6837722-.136114-.4083422.004339-.8579696.3486833-1.1162278 2.7647038-2.08636518 6.1364178-3.21026985 9.6-3.2.5522847 0 1 .44771525 1 1s-.4477153 1-1 1c-3.0305827-.00866443-5.9807325.9747189-8.4 2.8-.1728912.1302129-.3835593.2004356-.6.2z"
                  fill="#f5f5f5"/>
            <g fill="#000" fill-rule="nonzero">
                <path id="Shape"
                      d="m25 48c5.3263535.0028815 10.5007142-1.775409 14.7-5.052l2.157 2.152c-.7807639.7809997-.7807639 2.0470003 0 2.828l10.607 10.608c1.9528789 1.9528787 5.119121 1.9528787 7.0719999-.0000001 1.9528788-1.9528789 1.9528788-5.119121.0000001-7.0719999l-10.607-10.606c-.7913715-.7553037-2.0366285-.7553037-2.828 0l-2.153-2.158c6.8331529-8.8238409 6.6776696-21.1946698-.3750954-29.84398494-7.052765-8.64931517-19.1391287-11.29154768-29.1577276-6.37424931-10.01859889 4.91729837-15.32203268 16.09473865-12.7942598 26.96499675s12.2187921 18.5608841 23.3790828 18.5532375zm26.757-1.485-4.242 4.242-1.415-1.414 4.243-4.243zm6.365 10.607c-1.1730963 1.1691733-3.0709037 1.1691733-4.244 0l-4.949-4.95 4.243-4.243 4.95 4.949c1.1691733 1.1730963 1.1691733 3.0709037 0 4.244zm-9.193-13.436-4.243 4.243-1.414-1.414 4.243-4.243zm-4.243-1.416-1.416 1.416-2.032-2.032c.4906667-.4533333.9626667-.9253333 1.416-1.416zm-19.686-40.27c12.1502645 0 22 9.8497355 22 22s-9.8497355 22-22 22-22-9.8497355-22-22c.01377716-12.1445532 9.8554468-21.98622284 22-22z"/>
                <path id="Shape"
                      d="m25 44c11.045695 0 20-8.954305 20-20s-8.954305-20-20-20-20 8.954305-20 20c.01267466 11.0404407 8.9595593 19.9873253 20 20zm0-38c9.9411255 0 18 8.0588745 18 18s-8.0588745 18-18 18-18-8.0588745-18-18c.01157214-9.9363282 8.0636718-17.98842786 18-18z"/>
            </g>
        </g>
    </g>
</svg>