<svg height="512" viewBox="0 0 128 128" width="512" xmlns="http://www.w3.org/2000/svg">
    <g id="LinealColor">
        <path d="m97.632 20.947c-3.673.775-4.1 3.639-3.284 5.373 1.3 2.744 5.159 2.3 8.783-.007z" fill="#ff8f95"/>
        <path d="m123.92 24.58c-1.25-7.08-6.94-23.69-13.95-19.95-1.92 1.03-6.84 3.37-8.66 5.1-3.65 3.48-5.11 6.21-5.04 9.07.09 3.62 6.28 6.62 11.89 11.4 1.244 1.054 1.854 2.72 3.087 3.838a1.15 1.15 0 0 1 .313 1.286c-6.674 16.276-24.377 29.176-32.73 39.556-2.08-4.39-6.97-23.83-34.25-31.81-3.853-10.84-7.072-33.423-39.218-30.658a3 3 0 0 0 -2.732 2.988v50.219a2.969 2.969 0 0 0 .2 1.083c1.57 4.031 12.691 29.491 47.03 41.038 7.93 2.67 20 12.23 27.55 12.77 10.37.74 9.71-4.85 16.93-11.33 25.91-23.28 26.05-57.05 28.06-70.13.95-6.17 2.48-9.11 1.52-14.47z"
              fill="#ffabab"/>
        <path d="m2.635 18.736v40.987c7.4 5.792 17.752 7.892 17.752 7.892l18.345-17.015c-1.832-15.867-18.803-31.864-36.097-31.864z"
              fill="#f97d89"/>
        <path d="m74.888 103.937c-33.516-.652-54.169-27.4-61.619-54.356l5.721-6.35c28.031 6.669 56.205 29.538 59.137 56.031z"
              fill="#ff8f95"/>
        <path d="m2.781 24.581v23.063c7.241 1.049 15.077 4.445 21.092 7.86a1.669 1.669 0 0 0 2.272-2.3c-6.094-10.183-15.13-26.687-23.364-28.623z"
              fill="#ffdcdc"/>
        <path d="m82.1 102.187-1.49-1.1a12.294 12.294 0 0 1 -3.634-4.4c-6.239-12.321-19.034-16.787-25.222-18.266a2.045 2.045 0 0 0 -2.392 2.689c2.92 8.076 8.839 18.88 23.229 22.35a11.842 11.842 0 0 1 4.39 2.065l1.455 1.1a2.982 2.982 0 0 0 4.036-.311 2.876 2.876 0 0 0 -.372-4.127z"
              fill="#ffdcdc"/>
        <path d="m125.4 24.318c-1.007-5.664-4.98-18.278-10.829-21.116a5.639 5.639 0 0 0 -5.305.107c-.357.19-.818.426-1.343.695-3.172 1.625-6.145 3.2-7.653 4.642-3.887 3.706-5.584 6.849-5.5 10.189a4.976 4.976 0 0 0 .284 1.514 5.059 5.059 0 0 0 -2.061 6.612 4.616 4.616 0 0 0 2.973 2.526 6.061 6.061 0 0 0 1.69.226 11.4 11.4 0 0 0 5.385-1.606c1.372 1.01 2.772 2.06 4.147 3.231a8.032 8.032 0 0 1 1.306 1.641 11.989 11.989 0 0 0 1.569 1.994c-4.46 10.7-13.8 19.929-22.085 28.1-3.246 3.2-6.244 6.158-8.706 8.956-2.653-6.662-9.563-22.865-33.518-30.157-.316-.933-.633-1.936-.964-2.993-3.581-11.427-9.577-30.539-39.547-27.959a4.529 4.529 0 0 0 -4.108 4.488v50.209a4.47 4.47 0 0 0 .3 1.628c1.934 4.955 13.321 30.268 47.949 41.917 3.136 1.054 6.988 3.258 11.066 5.591 5.939 3.4 12.08 6.911 16.849 7.251q.973.07 1.838.069c6.493 0 8.67-2.835 11.365-6.348a37.179 37.179 0 0 1 4.836-5.433c22.873-20.542 26.062-49.322 27.779-64.784.269-2.419 1.376-9.583 1.672-10.956.745-3.452 1.333-6.183.611-10.234zm-28.6 2.287a1.629 1.629 0 0 1 -1.092-.925 2.178 2.178 0 0 1 0-1.853 2.253 2.253 0 0 1 .937-.933 26.084 26.084 0 0 0 3.672 3.2 5.706 5.706 0 0 1 -3.517.511zm-92.665-6.305c14.571.831 29.415 13.573 32.618 27.719a88.2 88.2 0 0 0 -15.538-5.774c-5.209-8.409-11.1-16.6-17.08-18.787zm43.817 61.32c3.182 8.8 7.909 15.144 14.324 19.177-24.4-5.91-39.576-27.034-46.307-47.546 2.856 1.261 5.3 2.556 7.038 3.542a3.21 3.21 0 0 0 1.59.426 3.111 3.111 0 0 0 1.048-.194c2.282 2.294 5.351 5.434 8.585 8.744 5.34 5.464 10.835 11.085 13.628 13.765a3.536 3.536 0 0 0 .094 2.086zm2.821-1.02a.535.535 0 0 1 .108-.556.521.521 0 0 1 .39-.181.594.594 0 0 1 .133.016c6.537 1.566 18.376 5.921 24.229 17.488a13.7 13.7 0 0 0 4.083 4.928l1.462 1.078a1.374 1.374 0 0 1 .158 1.963 1.484 1.484 0 0 1 -1.994.1l-1.454-1.1a13.261 13.261 0 0 0 -4.946-2.336c-10.642-2.564-17.89-9.564-22.169-21.4zm1.327-3.639a3.528 3.528 0 0 0 -2.34.245c-2.793-2.693-8.166-8.19-13.388-13.534-3.29-3.366-6.406-6.554-8.708-8.868a3.143 3.143 0 0 0 -.36-2.383c-.562-.938-3.1-5.232-3.8-6.395 21.18 6.514 43.829 23.1 51.017 44.2-6.809-8.364-16.578-11.865-22.421-13.265zm-47.965-50.273c6.443 3.376 20.035 26.331 20.6 27.273a.132.132 0 0 1 -.019.2.159.159 0 0 1 -.226.028c-4.114-2.337-12.1-6.364-20.353-7.843zm0 22.713a51.029 51.029 0 0 1 8.224 2.374 92.354 92.354 0 0 0 5.229 13.56 44.928 44.928 0 0 1 -13.453-6.366zm117.721-15.482c-.3 1.414-1.449 8.806-1.72 11.259-1.671 15.064-4.781 43.1-26.8 62.882a39.651 39.651 0 0 0 -5.212 5.839c-2.754 3.589-4.264 5.567-10.61 5.113-4.086-.292-9.925-3.632-15.572-6.863-4.21-2.408-8.185-4.683-11.6-5.831-33.364-11.218-44.263-35.424-46.108-40.161a1.462 1.462 0 0 1 -.1-.54v-3a52.007 52.007 0 0 0 15.294 6.319c10.243 19.07 28.1 35.477 54.261 36.453a10.131 10.131 0 0 1 2.384 1.329l1.455 1.1a4.637 4.637 0 0 0 2.8.948 4.3 4.3 0 0 0 3.277-1.475 4.373 4.373 0 0 0 -.574-6.282c-.014-.012-.03-.024-.047-.036l-1.49-1.1a10.1 10.1 0 0 1 -2.057-2.073c-2.895-20.563-20.076-37.936-39.32-48.1-2.324-16.3-19.34-31.526-35.982-32.4v-1.89a1.51 1.51 0 0 1 1.366-1.5c27.57-2.378 32.9 14.617 36.425 25.862 1.252 3.994 2.241 7.149 3.966 8.919a1.5 1.5 0 1 0 2.148-2.091 5.39 5.39 0 0 1 -.768-1.08c21.141 7.32 26.879 21.733 29.388 28.055.159.4.3.759.433 1.081a28.873 28.873 0 0 0 -2.574 3.872 1.5 1.5 0 0 0 2.64 1.426c2.318-4.293 7.233-9.139 12.924-14.749 8.4-8.283 17.857-17.635 22.6-28.74a7.922 7.922 0 0 0 2.893.168 1.5 1.5 0 0 0 -.326-2.983c-2.514.274-3.206-.765-4.262-2.341-.253-.379-.526-.783-.837-1.179a34.9 34.9 0 0 1 5.469-5.672 1.5 1.5 0 0 0 -1.72-2.458 36.3 36.3 0 0 0 -5.951 6.082c-.729-.585-1.455-1.139-2.167-1.672.207-.276 4.693-6.445 7.018-7.552a1.5 1.5 0 1 0 -1.289-2.709c-3.015 1.436-7.939 8.211-8.139 8.482-.745-.548-1.469-1.087-2.136-1.614a28.36 28.36 0 0 1 4.459-7.036 12.479 12.479 0 0 1 4.028-2.765c.5-.238 1.01-.482 1.566-.79a1.5 1.5 0 0 0 -1.455-2.626c-.5.276-.953.492-1.4.7a15.344 15.344 0 0 0 -4.845 3.339 32.02 32.02 0 0 0 -4.7 7.055 3.61 3.61 0 0 1 -1.117-2.136c-.061-2.455 1.306-4.831 4.572-7.945 1.319-1.258 4.845-3.064 6.95-4.143.544-.278 1.021-.523 1.39-.72a2.646 2.646 0 0 1 2.582-.053c4.1 1.989 8.032 12.463 9.185 18.943.614 3.473.108 5.825-.595 9.079z"
              fill="#452f4c"/>
    </g>
</svg>