<svg id="Capa_1" enable-background="new 0 0 512 512" height="512" viewBox="0 0 512 512" width="512"
     xmlns="http://www.w3.org/2000/svg">
    <g>
        <path d="m238.727 20.585c-23.688 22.097-76.762 42.694-76.762 42.694-79.762 101.375-68.956 180.019 27.293 248.744l17.499 178.917s231.191-181.942 224.885-267.289c-5.241-7.932-20.545-24.105-20.545-24.105l13.572-23.714s-16.739-68.429 8.066-155.247h-194.008z"
              fill="#fff3de"/>
        <path d="m433.374 507.176c-1.023 2.892-3.749 4.83-6.816 4.824l-63.951-.102-7.972-10.184-7.466 10.132-140.412-.306-21.945-33.217 1.617-146.265 71.104-21.963 27.975-10.2 14.522-5.29 47.139-17.198 7.719-2.81 7.246-2.645 86.126-20.07h.01c29.284 67.779 13.82 174.113-14.896 255.294z"
              fill="#5680a6"/>
        <path d="m175.879 351.192v153.128c0 3.979 3.226 7.205 7.205 7.205h23.672v-171.59l-12.387-5.725-18.485 16.984c-.001-.002-.003-.002-.005-.002z"
              fill="#497090"/>
        <path d="m411.053 191.822 20.585-15.99c.259-15.709 4.815-86.202 29.084-166.525 1.4-4.632-2.048-9.307-6.887-9.307h-215.108l-28.586 9.694c-22.771 21.398-38.645 33.592-54.329 53.525l9.435 17.834c45.48 42.603 104.515 77.1 177.631 96.16 27.567 7.188 36.558 12.186 68.175 14.609z"
              fill="#fd8087"/>
        <path d="m448.27 251.872-.01.01-86.126 31.392-13.267-10.014-1.699 15.469-47.139 17.198-4.059 9.199-10.464-3.908-20.718 7.555-8.788-7.906-5.713 13.195-43.531 15.872-17.499-14.692 17.499-19.6 33.208-12.108 9.585 5.808 4.917-11.099 80.167-29.23 12.562 6.554 1.95-11.844 82.493-30.074c6.659 8.317 12.165 17.889 16.632 28.223z"
              fill="#497090"/>
        <path d="m148.104 63.941-.002-.004c-79.763 101.375-68.472 184.237 27.777 252.962.002 0 .003-.001.005-.001l15.434 4.665 15.439-15.921v-.43c-90.308-64.482-105.823-134.297-41.509-224.158-2.972-2.785 3.376-15.898.519-18.751-2.858-2.853-14.921 4.554-17.663 1.638z"
              fill="#ffe5c2"/>
        <path d="m238.727 0h-28.024c-1.833 0-3.606.7-4.941 1.955-22.771 21.399-41.975 42.048-57.659 61.981l.002.004c5.484 5.833 11.199 11.543 17.143 17.114 18.119-25.317 42.574-52.225 73.479-81.054z"
              fill="#fe646f"/>
        <path d="m175.884 316.898-.005.002v34.292h.005l30.872-11.258v-34.292z" fill="#395e77"/>
        <path d="m448.271 251.883c-.002-.004-.003-.008-.005-.012l-.006.011z" fill="#fff"/>
        <g>
            <path d="m264.789 318.772-7.256 2.645-7.246 2.645c-.031-.051-.052-.113-.072-.175l-10.251-30.352 7.256-2.645 7.246-2.645c.031.051.051.113.072.175z"
                  fill="#395e77"/>
        </g>
        <path d="m362.607 286.063v225.813l-15.438-.031v-62.619l-61.466-137.505c-.072-.165-.144-.34-.196-.505l14.522-5.29 47.139 105.465v-123.846l-12.351-28.067c-.072-.154-.134-.309-.185-.463l7.246-2.645 7.266-2.645 12.752 28.962c.093.196.175.391.237.587.103.268.185.535.257.813 0 .01 0 .021.01.031 0 .041.01.082.021.123.01.031.021.062.021.093.01.021.01.041.01.062.01.052.021.103.031.154.093.504.135 1.008.124 1.513z"
              fill="#395e77"/>
        <path d="m431.638 175.832.004 47.818h-376.435c-3.979 0-7.205-3.226-7.205-7.205v-33.409c0-3.979 3.226-7.205 7.205-7.205h17.044l7.719 7.622 7.719-7.622h48.497l7.719 5.955 7.719-5.955h48.508l7.719 6.072 7.719-6.072h48.497l7.719 8.637 7.719-8.637h48.508l7.42 6.624 8.019-6.624h48.497l7.719 9.052 7.719-9.052h24.251z"
              fill="#fee97d"/>
        <g>
            <path d="m87.689 175.832v15.994c0 4.261-3.458 7.719-7.719 7.719s-7.719-3.458-7.719-7.719v-15.994z"
                  fill="#fed402"/>
        </g>
        <g>
            <path d="m151.625 175.832v15.994c0 4.261-3.448 7.719-7.719 7.719-4.261 0-7.719-3.458-7.719-7.719v-15.994z"
                  fill="#fed402"/>
        </g>
        <g>
            <path d="m215.571 175.832v15.994c0 4.261-3.458 7.719-7.719 7.719s-7.719-3.458-7.719-7.719v-15.994z"
                  fill="#fed402"/>
        </g>
        <g>
            <path d="m279.507 175.832v15.994c0 4.261-3.458 7.719-7.719 7.719s-7.719-3.458-7.719-7.719v-15.994z"
                  fill="#fed402"/>
        </g>
        <g>
            <path d="m343.453 175.832v15.994c0 4.261-3.458 7.719-7.719 7.719-4.271 0-7.719-3.458-7.719-7.719v-15.994z"
                  fill="#fed402"/>
        </g>
        <g>
            <path d="m407.389 175.832v15.994c0 4.261-3.458 7.719-7.719 7.719s-7.719-3.458-7.719-7.719v-15.994z"
                  fill="#fed402"/>
        </g>
    </g>
</svg>