<svg id="Capa_1" enable-background="new 0 0 511.999 511.999" height="512" viewBox="0 0 511.999 511.999" width="512"
     xmlns="http://www.w3.org/2000/svg">
    <g>
        <path d="m164.191 320.517h-136.577c-11.109 0-20.115-9.006-20.115-20.115v-88.806c0-11.109 9.006-20.115 20.115-20.115h136.577z"
              fill="#f6e266"/>
        <path d="m124.691 191.481h19.5v129.036h-19.5z" fill="#f1d333"/>
        <path d="m144.191 191.481h156.691v129.036h-156.691z" fill="#e49542"/>
        <path d="m261.382 191.481h19.5v129.036h-19.5z" fill="#e28424"/>
        <path d="m280.882 191.481h136.691v129.036h-136.691z" fill="#da4a54"/>
        <path d="m338.849 256c0 25.251 10.42 48.111 27.18 64.518h51.545v-129.037h-51.544c-16.761 16.407-27.181 39.267-27.181 64.519z"
              fill="#c32430"/>
        <circle cx="429.174" cy="255.999" fill="#95d6a4" r="75.325"/>
        <path d="m429.174 180.674c-3.945 0-7.819.306-11.601.891 36.093 5.58 63.724 36.779 63.724 74.434s-27.632 68.855-63.724 74.434c3.782.585 7.655.891 11.601.891 41.601 0 75.325-33.724 75.325-75.325s-33.724-75.325-75.325-75.325z"
              fill="#78c2a4"/>
        <g>
            <path d="m447.261 234.812-26.463 26.464-9.71-9.711c-2.93-2.928-7.678-2.928-10.607 0-2.929 2.93-2.929 7.678 0 10.607l15.014 15.014c2.931 2.929 7.678 2.928 10.607 0l31.767-31.767c2.929-2.93 2.929-7.678 0-10.607-2.931-2.928-7.679-2.928-10.608 0z"/>
            <path d="m507.78 229.905c-1.303-3.931-5.54-6.062-9.48-4.756-3.931 1.305-6.061 5.549-4.756 9.48 2.293 6.909 3.455 14.1 3.455 21.37 0 37.398-30.427 67.825-67.825 67.825s-67.825-30.426-67.825-67.824 30.427-67.825 67.825-67.825c19.125 0 37.461 8.142 50.307 22.337 2.783 3.073 7.525 3.307 10.594.529 3.071-2.779 3.309-7.522.529-10.594-15.685-17.332-38.074-27.272-61.43-27.272-14.841 0-28.771 3.943-40.83 10.808h-315.005c-4.143 0-7.5 3.357-7.5 7.5s3.357 7.5 7.5 7.5h63.352v114.035h-109.077c-6.955 0-12.614-5.659-12.614-12.615v-88.806c0-6.955 5.659-12.614 12.614-12.614h15.737c4.143 0 7.5-3.357 7.5-7.5s-3.357-7.5-7.5-7.5h-15.737c-15.226-.001-27.614 12.387-27.614 27.613v88.806c0 15.228 12.388 27.615 27.614 27.615h281.247c4.143 0 7.5-3.357 7.5-7.5s-3.357-7.5-7.5-7.5h-20.479v-114.035h80.803c-14.134 14.863-22.836 34.937-22.836 57.018s8.702 42.155 22.836 57.018h-30.336c-4.143 0-7.5 3.357-7.5 7.5s3.357 7.5 7.5 7.5h49.495c12.06 6.865 25.989 10.808 40.83 10.808 45.67 0 82.825-37.155 82.825-82.825 0-8.88-1.419-17.66-4.219-26.096zm-234.398 83.112h-121.69v-114.035h121.69z"/>
        </g>
    </g>
</svg>