<svg id="Capa_1" enable-background="new 0 0 512.004 512.004" height="512" viewBox="0 0 512.004 512.004" width="512"
     xmlns="http://www.w3.org/2000/svg">
    <path d="m258.519 512.003c2.944 0 5.76-1.166 7.838-3.252 30.197-30.328 259.624-265.012 240.703-375.638-13.353-78.06-127.585-122.153-136.039-125.316-.325-.122-.665-.183-1.012-.183h-100.867c-2.997 0-4.018 3.993-1.387 5.429 30.032 16.399 112.288 66.802 72.204 107.596-42.156 42.903-279.269 99.265-327.543 110.393-5.024 1.158-8.579 5.629-8.579 10.785v253.382c0 9.28 7.523 16.803 16.803 16.803h237.879z"
          fill="#595959"/>
    <path d="m507.059 133.113c-13.352-78.06-127.583-122.153-136.038-125.316-.325-.122-.665-.183-1.012-.183h-112.65 77.647s122.666 44.433 136.532 125.499c20.25 118.392-243.94 378.869-243.961 378.891h30.942c2.944 0 5.76-1.166 7.838-3.252 30.196-30.329 259.623-265.013 240.702-375.639z"
          fill="#454545"/>
    <path d="m18.314 444.789c-2.376 0-4.716-1.109-6.201-3.189-2.443-3.421-1.65-8.174 1.771-10.617 7.327-5.232 17.185-12.283 28.998-20.756 3.414-2.449 8.171-1.668 10.621 1.749 2.45 3.415 1.667 8.17-1.749 10.621-11.823 8.48-21.691 15.538-29.024 20.774-1.341.958-2.886 1.418-4.416 1.418zm57.942-41.557c-2.365 0-4.695-1.099-6.182-3.165-2.457-3.411-1.683-8.168 1.728-10.624 9.065-6.529 18.74-13.507 28.878-20.836 3.405-2.463 8.164-1.699 10.627 1.71 2.463 3.406 1.698 8.165-1.71 10.627-10.146 7.334-19.828 14.318-28.9 20.851-1.345.971-2.9 1.437-4.441 1.437zm57.733-41.741c-2.355 0-4.677-1.089-6.166-3.142-2.47-3.401-1.714-8.162 1.689-10.63 9.381-6.81 19.007-13.813 28.786-20.944 3.394-2.478 8.156-1.733 10.634 1.665 2.477 3.396 1.731 8.158-1.665 10.634-9.787 7.139-19.423 14.148-28.814 20.963-1.349.981-2.914 1.454-4.464 1.454zm57.549-41.972c-2.343 0-4.653-1.078-6.145-3.112-2.486-3.391-1.751-8.154 1.638-10.639 9.539-6.993 19.134-14.047 28.703-21.105 3.384-2.494 8.149-1.774 10.644 1.608 2.495 3.384 1.775 8.149-1.608 10.644-9.581 7.066-19.187 14.13-28.738 21.131-1.356.993-2.932 1.473-4.494 1.473zm57.342-42.308c-2.326 0-4.621-1.061-6.116-3.072-2.506-3.374-1.804-8.142 1.571-10.649 9.827-7.3 19.419-14.461 28.513-21.281 3.366-2.522 8.134-1.839 10.656 1.522 2.522 3.364 1.84 8.134-1.522 10.656-9.112 6.833-18.725 14.007-28.569 21.322-1.363 1.014-2.955 1.502-4.533 1.502zm56.976-42.749c-2.299 0-4.571-1.037-6.068-3.009-2.542-3.348-1.888-8.123 1.46-10.665 10.028-7.613 19.527-14.883 28.236-21.611 3.326-2.567 8.107-1.957 10.677 1.371 2.57 3.327 1.956 8.107-1.371 10.677-8.742 6.752-18.276 14.05-28.337 21.688-1.376 1.045-2.994 1.549-4.597 1.549zm56.342-43.602c-2.242 0-4.462-.985-5.964-2.877-2.615-3.291-2.066-8.079 1.225-10.694 10.621-8.438 19.859-15.961 27.459-22.363 3.216-2.708 8.018-2.297 10.725.918 2.709 3.216 2.297 8.018-.918 10.725-7.711 6.495-17.063 14.111-27.798 22.638-1.399 1.114-3.07 1.653-4.729 1.653zm53.693-46.82c-1.672 0-3.354-.548-4.759-1.676-3.279-2.631-3.803-7.421-1.171-10.7 3.655-4.555 5.432-9.439 5.432-14.934 0-3.472-.725-7.255-2.157-11.242-1.419-3.956.637-8.315 4.594-9.735 3.957-1.416 8.316.637 9.735 4.594 2.024 5.641 3.051 11.154 3.051 16.384 0 8.97-2.955 17.2-8.784 24.462-1.504 1.872-3.712 2.847-5.941 2.847zm-14.565-63.259c-2.107 0-4.203-.869-5.708-2.572-6.689-7.572-15.051-15.582-24.853-23.806-3.221-2.703-3.641-7.503-.94-10.724 2.704-3.221 7.502-3.642 10.724-.939 10.382 8.709 19.289 17.252 26.479 25.389 2.783 3.151 2.485 7.961-.665 10.744-1.448 1.279-3.246 1.908-5.037 1.908zm-53.963-46.186c-1.508 0-3.032-.448-4.361-1.379-16.402-11.493-29.252-18.936-29.38-19.01-3.64-2.101-4.888-6.756-2.787-10.396 2.1-3.64 6.753-4.892 10.395-2.788.544.314 13.52 7.826 30.508 19.727 3.443 2.412 4.279 7.159 1.866 10.602-1.48 2.113-3.842 3.244-6.241 3.244z"
          fill="#eaeaea"/>
    <path d="m389.994 481.412h29.647c3.748 0 6.787-3.039 6.787-6.787v-58.746c0-3.748-3.039-6.787-6.787-6.787h-29.647c-3.748 0-6.787 3.039-6.787 6.787v58.746c0 3.748 3.039 6.787 6.787 6.787z"
          fill="#aaa"/>
    <path d="m404.817 426.853c-4.204 0-7.612-3.407-7.612-7.612v-133.555c0-5.036-4.097-9.133-9.133-9.133h-10.152c-5.036 0-9.133 4.097-9.133 9.133v10.149c0 4.204-3.407 7.612-7.612 7.612-4.204 0-7.612-3.407-7.612-7.612v-10.149c0-13.43 10.926-24.356 24.356-24.356h10.153c13.43 0 24.356 10.926 24.356 24.356v133.555c.001 4.205-3.406 7.612-7.611 7.612z"
          fill="#aaa"/>
    <path d="m360.947 317.065h.46c8.538 0 15.46-6.922 15.46-15.46v-11.458c0-2.464-1.998-4.462-4.462-4.462h-22.456c-2.464 0-4.462 1.998-4.462 4.462v11.458c0 8.538 6.921 15.46 15.46 15.46z"
          fill="#f6e738"/>
    <path d="m144.444 168.639h-19.182c-3.748 0-6.787-3.039-6.787-6.787v-41.236c0-3.748 3.039-6.787 6.787-6.787h19.182c3.748 0 6.787 3.039 6.787 6.787v41.236c-.001 3.749-3.039 6.787-6.787 6.787z"
          fill="#aaa"/>
    <path d="m134.853 131.591c-4.204 0-7.612-3.407-7.612-7.612v-103.675c0-11.194 9.107-20.301 20.301-20.301h7.695c11.194 0 20.301 9.107 20.301 20.301v10.149c0 4.204-3.407 7.612-7.612 7.612s-7.612-3.407-7.612-7.612v-10.149c0-2.8-2.279-5.078-5.078-5.078h-7.695c-2.8 0-5.078 2.278-5.078 5.078v103.675c.001 4.204-3.406 7.612-7.61 7.612z"
          fill="#aaa"/>
    <path d="m168.101 44.085h-.348c-6.471 0-11.716-5.246-11.716-11.716v-7.955c0-2.27 1.84-4.11 4.11-4.11h15.561c2.27 0 4.11 1.84 4.11 4.11v7.955c-.001 6.471-5.246 11.716-11.717 11.716z"
          fill="#f6e738"/>
</svg>