<svg id="Capa_1" enable-background="new 0 0 497.611 497.611" height="512" viewBox="0 0 497.611 497.611" width="512"
     xmlns="http://www.w3.org/2000/svg">
    <g>
        <path d="m287.614 493.192h-95.604c-4.143 0-7.5-3.358-7.5-7.5s3.357-7.5 7.5-7.5h95.604c4.143 0 7.5 3.358 7.5 7.5s-3.357 7.5-7.5 7.5z"
              fill="#bdc0c9"/>
        <path d="m204.011 462.178h-104c-4.143 0-7.5-3.358-7.5-7.5s3.357-7.5 7.5-7.5h104c4.143 0 7.5 3.358 7.5 7.5s-3.358 7.5-7.5 7.5z"
              fill="#d6d8e0"/>
        <path d="m360.214 37.419h35.476v44.653h-35.476z" fill="#ddc448"/>
        <path d="m344.22 19.419h-94.209c-4.143 0-7.5-3.358-7.5-7.5s3.357-7.5 7.5-7.5h94.209c4.143 0 7.5 3.358 7.5 7.5s-3.358 7.5-7.5 7.5z"
              fill="#bdc0c9"/>
        <path d="m308.544 134.692-60.533-60.533 22.405-22.405 60.533 60.533" fill="#ddc448"/>
        <circle cx="377.952" cy="181.696" fill="#f5dc60" r="117.394"/>
        <path d="m462.215 181.69c0 46.537-37.727 84.265-84.264 84.265-4.736 0-9.366-.384-13.89-1.138-39.923-6.627-70.375-41.325-70.375-83.127 0-41.788 30.452-76.486 70.375-83.114 4.524-.754 9.154-1.138 13.89-1.138 46.537.001 84.264 37.728 84.264 84.252z"
              fill="#e7e8ed"/>
        <path d="m434.436 181.69c0 41.802-30.452 76.5-70.375 83.127-39.923-6.627-70.375-41.325-70.375-83.127 0-41.788 30.452-76.486 70.375-83.114 39.923 6.628 70.375 41.326 70.375 83.114z"
              fill="#d6d8e0"/>
        <path d="m344.22 4.419h67.465v44.653h-67.465z" fill="#f5dc60"/>
        <path d="m344.22 4.419h30.305v44.653h-30.305z" fill="#ddc448"/>
        <path d="m377.952 189.196c-4.143 0-7.5-3.358-7.5-7.5v-41.992c0-4.142 3.357-7.5 7.5-7.5s7.5 3.358 7.5 7.5v41.992c0 4.142-3.357 7.5-7.5 7.5z"
              fill="#526071"/>
        <path d="m301.686 281.574c-3.332 0-6.373-2.236-7.253-5.61l-13.204-50.665c-2.877-11.043-2.181-22.692 1.963-32.801 4.899-11.957 16.456-27.08 43.691-31.225 4.079-.624 7.919 2.19 8.543 6.286.623 4.095-2.191 7.92-6.287 8.543-16.29 2.479-27.079 9.909-32.067 22.083-2.92 7.124-3.392 15.409-1.327 23.331l13.204 50.665c1.044 4.008-1.358 8.104-5.366 9.149-.636.165-1.271.244-1.897.244z"
              fill="#7da2dc"/>
        <path d="m497.611 456.192v37h-210l-238.11-240 135.5-135.5c-27.12 36.79-19.28 88.6 17.51 115.73 25.28 18.64 57.66 20.76 84.24 8.33 12.1-5.66 23-14.33 31.48-25.84l1.27-1.72 55.11 161s123-12 123 81z"
              fill="#7da2dc"/>
        <path d="m497.61 456.192v37h-210l-238.11-240 28.49-28.49 59.96 60.44 10.57 10.64 8.36 8.43 10.56 10.65 136.64 137.72h193.46c.05 1.19.07 2.39.07 3.61z"
              fill="#bdc0c9"/>
        <path d="m374.611 375.188h-31.75c-10.9 0-20.46-7.24-23.43-17.73l-32.68-115.71c12.1-5.66 23-14.33 31.48-25.84l1.27-1.72z"
              fill="#bdc0c9"/>
        <path d="m77.991 224.698 52.69-52.69c13.48 13.49 21.82 32.12 21.82 52.69 0 20.68-8.43 39.39-22.03 52.9z"
              fill="#f5dc60"/>
        <path d="m239.855 387.826c-47.73-105.31-6.27-140.24-6.27-140.24 17.9 3.99 36.65 1.89 53.17-5.84l10.98 38.89c-73.56 38.52-58.18 105.9-57.88 107.19z"
              fill="#f5dc60"/>
        <path d="m313.502 265.69c-3.058 0-5.929-1.883-7.043-4.92-1.426-3.889.571-8.198 4.46-9.624l30-11c3.889-1.426 8.198.571 9.624 4.459 1.426 3.889-.571 8.198-4.46 9.624l-30 11c-.852.312-1.724.461-2.581.461z"
              fill="#526071"/>
        <path d="m335.192 327.413c-3.058 0-5.929-1.883-7.043-4.92-1.426-3.889.571-8.198 4.46-9.624l30-11c3.89-1.426 8.197.571 9.624 4.459 1.426 3.889-.571 8.198-4.46 9.624l-30 11c-.851.313-1.723.461-2.581.461z"
              fill="#526071"/>
        <path d="m346.037 358.275c-3.058 0-5.929-1.883-7.043-4.92-1.426-3.889.571-8.198 4.46-9.624l30-11c3.89-1.425 8.197.571 9.624 4.459 1.426 3.889-.571 8.198-4.46 9.624l-30 11c-.851.312-1.723.461-2.581.461z"
              fill="#526071"/>
        <path d="m324.347 296.551c-3.058 0-5.929-1.883-7.043-4.92-1.426-3.889.571-8.198 4.46-9.624l30-11c3.889-1.425 8.197.571 9.624 4.459 1.426 3.889-.571 8.198-4.46 9.624l-30 11c-.852.313-1.724.461-2.581.461z"
              fill="#526071"/>
        <path d="m136.011 125.188h-128.511c-4.143 0-7.5-3.358-7.5-7.5s3.357-7.5 7.5-7.5h128.511c4.143 0 7.5 3.358 7.5 7.5s-3.358 7.5-7.5 7.5z"
              fill="#bdc0c9"/>
        <g fill="#d6d8e0">
            <path d="m92.011 156.178h-84.511c-4.143 0-7.5-3.358-7.5-7.5s3.357-7.5 7.5-7.5h84.511c4.143 0 7.5 3.358 7.5 7.5s-3.358 7.5-7.5 7.5z"/>
            <path d="m474.51 452.582v10.11c0 4.14-3.36 7.5-7.5 7.5s-7.5-3.36-7.5-7.5v-10.11z"/>
            <path d="m438.51 452.582v13.11c0 4.14-3.36 7.5-7.5 7.5s-7.5-3.36-7.5-7.5v-13.11z"/>
            <path d="m362.51 452.582v23.11c0 4.14-3.36 7.5-7.5 7.5s-7.5-3.36-7.5-7.5v-23.11z"/>
            <path d="m402.51 452.582v18.11c0 4.14-3.35 7.5-7.5 7.5-4.14 0-7.5-3.36-7.5-7.5v-18.11z"/>
            <path d="m167.44 314.862-9.63 9.63c-1.46 1.46-3.38 2.2-5.3 2.2s-3.84-.74-5.3-2.2c-2.93-2.93-2.93-7.68 0-10.61l9.67-9.67z"/>
            <path d="m148.521 295.782-14.71 14.71c-1.46 1.46-3.38 2.2-5.3 2.2s-3.84-.74-5.3-2.2c-2.93-2.93-2.93-7.68 0-10.61l14.74-14.74z"/>
            <path d="m228.012 59.254h-68.001c-4.143 0-7.5-3.358-7.5-7.5s3.357-7.5 7.5-7.5h68.001c4.143 0 7.5 3.358 7.5 7.5s-3.358 7.5-7.5 7.5z"/>
        </g>
    </g>
</svg>