<svg id="Layer_3" enable-background="new 0 0 60 60" height="512" viewBox="0 0 60 60" width="512"
     xmlns="http://www.w3.org/2000/svg">
    <g fill="#3773b5">
        <path d="m46.13 10.79c0 3.19-2.59 5.79-5.78 5.79s-5.79-2.6-5.79-5.79 2.6-5.79 5.79-5.79 5.78 2.6 5.78 5.79z"/>
        <path d="m51.02 22.82-3.48 3.84c-1.92 2.13-5.14 2.49-7.49.84l-.55-.39-1.93 7.1 5.41 4.54c.19.16.32.38.35.62l1.88 12.61c.19 1.22-.49 2.39-1.63 2.84-.31.12-.64.18-.97.18-.41 0-.81-.09-1.19-.28-.67-.34-1.16-.95-1.35-1.67l-2.56-9.63-6.54-3.06-10.29 7.77c-.35.27-.83.27-1.18.02l-9.98-7.2c-.68-.48-1.09-1.24-1.14-2.07-.05-.84.28-1.64.9-2.2.9-.81 2.2-.94 3.24-.32l7.59 4.47 5.47-4.98 3.88-13.27-3.89.48-4.2 5.49c-.72.94-2.01 1.23-3.06.69-.61-.32-1.06-.87-1.24-1.53s-.07-1.37.3-1.95l3.34-5.28c1.45-2.27 3.92-3.73 6.61-3.89l3.87-.23c1.25-.08 2.48.1 3.66.52l4.18 1.5c1.33.47 2.55 1.26 3.54 2.28l2.02 2.11 3.11-3.11c.49-.49 1.16-.73 1.85-.66.68.07 1.3.43 1.68 1.01.59.88.5 2.03-.21 2.81z"/>
    </g>
</svg>