<svg id="Capa_1" enable-background="new 0 0 512 512" height="512" viewBox="0 0 512 512" width="512"
     xmlns="http://www.w3.org/2000/svg">
    <g>
        <path d="m457 304h-402c-30.327 0-55-24.673-55-55v-160c0-30.327 24.673-55 55-55h402c30.327 0 55 24.673 55 55v160c0 30.327-24.673 55-55 55z"
              fill="#ff6378"/>
        <path d="m457 34h-201v270h201c30.327 0 55-24.673 55-55v-160c0-30.327-24.673-55-55-55z" fill="#ff1f3d"/>
        <g fill="#fff5f5">
            <path d="m89.933 160.17c-8.385-3.093-16.207-6.457-18.826-7.602-1.238-1.082-1.257-2.503-1.143-3.304.144-.998.887-3.444 4.691-4.589 9.183-2.767 17.824 3.995 18.114 4.226 4.228 3.499 10.492 2.938 14.03-1.27 3.554-4.228 3.007-10.536-1.22-14.089-.683-.574-16.927-13.971-36.692-8.016-10.134 3.053-17.307 11.061-18.719 20.898-1.329 9.26 2.687 18.168 10.479 23.248.441.288.905.541 1.387.755.407.182 10.083 4.489 20.978 8.508 2.164.798 9.164 3.744 8.38 8.137-.596 3.331-4.97 6.928-10.998 6.928-6.61 0-12.959-2.651-16.983-7.091-3.709-4.093-10.034-4.404-14.125-.695-4.093 3.709-4.404 10.033-.695 14.125 7.867 8.682 19.459 13.661 31.803 13.661 15.358 0 28.264-9.847 30.686-23.413 1.831-10.258-2.763-23.636-21.147-30.417z"/>
            <path d="m182.32 124c-5.523 0-10 4.477-10 10v48.117c0 3.181-.914 6.893-7.69 10.306-2.107 1.061-4.405 1.577-7.024 1.577-.009 0-.019 0-.028 0-2.845-.004-5.309-.696-7.532-2.118-5.3-3.386-6.365-6.228-6.365-9.715v-48.167c0-5.523-4.477-10-10-10s-10 4.477-10 10v48.167c0 11.018 5.248 19.958 15.596 26.568 5.451 3.484 11.6 5.255 18.274 5.264h.055c5.736 0 11.126-1.25 16.021-3.715 12.055-6.071 18.694-16.075 18.694-28.168v-48.116c-.001-5.523-4.478-10-10.001-10z"/>
            <path d="m260.457 163.348c2.296-3.885 3.62-8.41 3.62-13.241 0-14.396-11.711-26.107-26.107-26.107h-20.333c-5.523 0-10 4.477-10 10v32.233.052 37.715c0 2.66 1.06 5.21 2.945 7.087 1.875 1.866 4.411 2.913 7.055 2.913h.044c.002 0 18.689-.083 23.84-.083 15.904 0 28.842-12.938 28.842-28.842 0-8.661-3.842-16.436-9.906-21.727zm-22.487-19.348c3.367 0 6.107 2.74 6.107 6.107 0 3.368-2.74 6.107-6.107 6.107-1.475 0-4.237.008-7.26.019h-3.073v-12.233zm3.551 49.917c-2.582 0-8.553.021-13.884.042v-17.714c1.025-.004 2.057-.008 3.063-.011h10.821c4.875 0 8.842 3.967 8.842 8.842s-3.967 8.841-8.842 8.841z"/>
        </g>
        <path d="m353.276 138.208c-.007-.039-.015-.078-.023-.117-1.028-5.05-5.339-8.781-10.484-9.072-5.15-.299-9.852 2.928-11.443 7.83-.037.115-.072.23-.105.347l-8.385 29.413-8.707-29.511c-.035-.119-.073-.238-.112-.356-1.642-4.887-6.379-8.05-11.525-7.713-5.144.346-9.416 4.123-10.39 9.185-.007.038-.014.075-.021.113l-10.546 58.429c-.981 5.435 2.629 10.636 8.064 11.617 5.438.983 10.637-2.629 11.617-8.064l4.065-22.52 6.82 23.118c.035.118.072.235.111.352 1.556 4.638 5.877 7.743 10.764 7.743h.057c4.911-.024 9.229-3.179 10.745-7.85.037-.114.072-.229.105-.345l6.582-23.087 4.336 22.691c1.037 5.425 6.277 8.982 11.699 7.945 5.425-1.037 8.982-6.275 7.945-11.699z"
              fill="#e2dff4"/>
        <path d="m455 129h-33.135c-5.523 0-10 4.477-10 10s4.477 10 10 10h6.5v50c0 5.523 4.477 10 10 10s10-4.477 10-10v-50h6.635c5.523 0 10-4.477 10-10s-4.477-10-10-10z"
              fill="#e2dff4"/>
        <path d="m389 129c-5.523 0-10 4.477-10 10v60c0 5.523 4.477 10 10 10s10-4.477 10-10v-60c0-5.523-4.477-10-10-10z"
              fill="#e2dff4"/>
        <g>
            <path d="m467.5 438.488-64.952 37.5c-7.174 4.142-16.348 1.684-20.49-5.49l-47.5-82.272-19.486 11.25c-10.705 6.18-23.871-2.513-22.392-14.785l14.952-124.103c1.196-9.928 11.588-15.928 20.785-12l114.952 49.103c11.367 4.856 12.312 20.604 1.608 26.785l-19.486 11.25 47.5 82.272c4.141 7.174 1.683 16.348-5.491 20.49z"
                  fill="#7a7a93"/>
            <path d="m307.632 260.588-14.952 124.102c-1.478 12.272 11.688 20.965 22.392 14.785l19.486-11.25 47.5 82.272c4.142 7.174 13.316 9.633 20.49 5.49l32.476-18.75-120-207.846c-3.897 2.251-6.794 6.233-7.392 11.197z"
                  fill="#616173"/>
        </g>
        <path d="m270.363 185.075c0-8.661-3.842-16.436-9.906-21.728 2.296-3.885 3.62-8.41 3.62-13.241 0-7.407-3.106-14.098-8.077-18.854v78.751c8.58-5.003 14.363-14.3 14.363-24.928z"
              fill="#e2dff4"/>
    </g>
</svg>