<svg id="Capa_1" enable-background="new 0 0 512 512" height="512" viewBox="0 0 512 512" width="512"
     xmlns="http://www.w3.org/2000/svg">
    <g>
        <g>
            <g>
                <g>
                    <g>
                        <path d="m512 106v391h-512v-391c0-8.284 6.716-15 15-15h482c8.284 0 15 6.716 15 15z"
                              fill="#f0f7ff"/>
                    </g>
                </g>
            </g>
            <path d="m512 211v-30h-106v-90h-30v90h-105v-90h-30v90h-105v-90h-30v90h-106v30h106v75h-106v30h106v75h-106v30h106v76h30v-76h105v76h30v-76h105v76h30v-76h106v-30h-106v-75h106v-30h-106v-75zm-271 180h-105v-75h105zm0-105h-105v-75h105zm135 105h-105v-75h105zm0-105h-105v-75h105z"
                  fill="#dfe7f4"/>
        </g>
        <path d="m497 91h-241v406h256v-391c0-8.284-6.716-15-15-15z" fill="#dfe7f4"/>
        <path d="m406 91h-30v90h-105v-90h-15v406h15v-76h105v76h30v-76h106v-30h-106v-75h106v-30h-106v-75h106v-30h-106zm-30 300h-105v-75h105zm0-105h-105v-75h105z"
              fill="#c7cfe1"/>
        <path d="m0 15h512v91h-512z" fill="#979fef"/>
        <path d="m256 15h256v91h-256z" fill="#7984eb"/>
    </g>
</svg>