<svg id="Capa_1" enable-background="new 0 0 512 512" height="512" viewBox="0 0 512 512" width="512"
     xmlns="http://www.w3.org/2000/svg">
    <g>
        <g>
            <path d="m29.042 474.561c27.888 31.801 76.276 34.978 108.076 7.091l68.405-59.979c15.892-13.937 24.643-33.012 25.922-52.573.346-5.146.165-10.319-.549-15.448l-18.292-40.053c-27.888-31.801-76.276-34.979-108.078-7.1l-68.405 59.979c-15.9 13.949-24.631 33.02-25.932 52.575-1.279 19.56 4.904 39.608 18.853 55.508zm36.181-76.188 50.715-45.787c19.713 27.675 68.851 28.773 68.851 28.773l-73.113 67.79c-4.829 4.484-10.618 7.321-16.672 8.525-10.741 2.136-22.295-.899-30.701-9.065-14.279-13.861-13.857-36.909.92-50.236z"
                  fill="#80b6ff"/>
            <path d="m118.406 352.596 16.395-14.385c12.806-11.219 31.663-11.22 44.435-.776 5.692.37 12.758-3.599 18.011-8.209l17.823-15.629 50.582-44.351 6.156 21.709 21.642 9.998-60.087 52.697-8.308 7.281c-10.725 9.406-23.318 15.271-36.38 17.705l-.01.002c-.429.923-.902 1.834-1.42 2.724-.904-.025-49.303-1.362-68.839-28.766z"
                  fill="#dfedff"/>
            <path d="m491.676 53.542c-21.15-36.629-67.989-49.183-104.618-28.033l-78.789 45.486c-18.305 10.57-30.608 27.572-35.677 46.508-1.343 4.979-2.174 10.089-2.475 15.259l10.129 42.851c21.15 36.629 67.989 49.183 104.618 28.043l78.789-45.486c18.315-10.58 30.598-27.582 35.688-46.508 5.069-18.936 2.916-39.805-7.665-58.12zm-50.345 67.668-58.671 35.016c-13.936-30.989-61.917-41.649-61.917-41.649l84.931-52.229c5.611-3.456 11.842-5.11 18.014-5.11 10.951 0 21.691 5.23 28.344 14.878 11.301 16.382 6.392 38.905-10.701 49.094z"
                  fill="#80b6ff"/>
            <path d="m382.66 156.216-18.886 10.911c-14.748 8.506-33.243 4.829-43.733-7.905-5.51-1.473-13.215 1.042-19.266 4.539l-20.529 11.853-58.26 33.634-1.803-22.493-19.276-14.027 69.211-39.966 9.568-5.52c12.353-7.134 25.849-10.43 39.134-10.269h.01c.601-.822 1.242-1.623 1.924-2.395.881.2 48.09 10.95 61.906 41.638z"
                  fill="#dfedff"/>
        </g>
        <g>
            <path d="m167.2 439.669c-4.21 3.574-4.725 9.885-1.151 14.095s9.885 4.725 14.095 1.151 4.725-9.885 1.151-14.095-9.885-4.725-14.095-1.151z"/>
            <path d="m298.131 292.61-17.339-8.762-4.608-17.196c-.886-3.307-3.4-5.932-6.665-6.961-3.268-1.03-6.831-.32-9.452 1.881l-44.307 37.178c-14.129-13.393-32.221-21.594-51.906-23.317-23.048-2.023-45.498 5.06-63.217 19.928l-69.689 58.477c-17.713 14.862-28.583 35.743-30.61 58.802-2.016 23.04 5.067 45.49 19.942 63.216 17.107 20.387 41.677 30.899 66.413 30.898 19.649-.001 39.404-6.635 55.597-20.223l2.881-2.419c4.238-3.557 4.792-9.876 1.235-14.115s-9.875-4.79-14.115-1.235l-2.881 2.418c-28.119 23.592-70.187 19.913-93.781-8.205-11.435-13.626-16.879-30.884-15.33-48.587 1.558-17.725 9.913-33.778 23.528-45.202l69.689-58.477c13.619-11.427 30.879-16.862 48.59-15.316 14.343 1.256 27.593 6.974 38.185 16.334l-9.915 8.32c-3.382 2.837-6.587 4.477-8.755 5.15-16.323-11.379-38.324-10.574-53.871 2.474l-69.69 58.477c-18.764 15.745-21.218 43.824-5.468 62.592 8.774 10.457 21.378 15.85 34.066 15.849 10.079 0 20.212-3.403 28.519-10.373l69.69-58.477c3.423-2.874 6.343-6.173 8.723-9.851 9.994-2.23 19.516-6.235 28.117-11.8-2.614 13.882-9.561 26.583-19.973 36.284-4.049 3.772-4.273 10.111-.501 14.16 1.973 2.118 4.649 3.19 7.332 3.19 2.446 0 4.897-.89 6.827-2.689 15.67-14.599 25.326-34.408 27.187-55.762.354-3.982.407-7.996.204-11.993l57.269-48.054c2.58-2.164 3.9-5.48 3.513-8.825-.387-3.343-2.429-6.27-5.434-7.789zm-195.835 146.259c-10.301 8.643-25.712 7.293-34.356-3.006-4.179-4.981-6.168-11.304-5.6-17.804.567-6.501 3.621-12.381 8.599-16.559l44.289-37.163c13.326 12.633 30.185 20.629 48.558 22.936zm115.187-86.516c-9.163 7.687-20.205 12.768-31.934 14.692-.093.016-11.193 1.107-16.658.623-14.337-1.249-27.586-6.962-38.178-16.323l9.917-8.322s.002-.002.004-.003c9.163-7.684 22.404-7.632 31.484.13 1.587 1.355 3.558 2.182 5.637 2.364 10.98.962 21.495-6.754 25.501-10.116l57.643-48.368 1.698 6.333c.738 2.754 2.614 5.062 5.159 6.348l7.778 3.931z"/>
            <path d="m500.353 48.53c-23.877-41.354-76.946-55.577-118.304-31.698l-78.785 45.486c-20.04 11.57-34.369 30.247-40.344 52.575-1.039 3.859-1.788 7.803-2.282 11.773l-64.744 37.38c-2.936 1.696-4.817 4.761-4.996 8.147s1.367 6.634 4.108 8.629l15.555 11.325 1.44 17.9c.276 3.425 2.288 6.47 5.329 8.067 1.46.767 3.059 1.149 4.657 1.149 1.732 0 3.462-.449 5.009-1.342l50.09-28.919c11.589 15.643 27.982 26.86 47.069 31.976 7.464 2 15.036 2.989 22.562 2.989 15.004 0 29.814-3.935 43.155-11.637l78.785-45.486c20.025-11.562 34.357-30.239 40.356-52.594 5.986-22.339 2.911-45.679-8.66-65.72zm-270.187 137.424c-.234-2.912-1.728-5.577-4.09-7.296l-6.817-4.964 55.845-32.242c.059-.034.119-.067.177-.102l9.416-5.436c10.359-5.981 22.142-9.072 34-8.923.099.002.197 0 .296-.001 5.476.09 10.926.855 16.218 2.28 13.902 3.72 25.958 11.647 34.764 22.705l-11.212 6.473c-.006.003-.011.006-.017.01-10.354 5.966-23.378 3.615-30.973-5.603-1.327-1.61-3.123-2.766-5.139-3.306-10.658-2.853-22.342 2.919-26.871 5.534l-20.531 11.853s-.001 0-.002.001-.001.001-.002.001l-44.526 25.707zm113.477-75.105 69.516-40.135c5.629-3.25 12.197-4.112 18.5-2.422 6.301 1.688 11.561 5.718 14.811 11.348 3.25 5.631 4.111 12.203 2.424 18.507-1.688 6.304-5.716 11.564-11.344 14.813l-50.069 28.908c-10.93-14.756-26.144-25.556-43.838-31.019zm146.017-1.789c-4.611 17.185-15.628 31.543-31.021 40.43l-78.785 45.486c-15.396 8.889-33.337 11.248-50.512 6.646-13.907-3.727-25.962-11.66-34.768-22.717l11.209-6.471c3.824-2.207 7.265-3.266 9.515-3.553 14.101 14.042 35.909 17.066 53.484 6.918l78.786-45.487c10.265-5.925 17.609-15.509 20.682-26.984 3.071-11.473 1.499-23.444-4.427-33.708-5.926-10.265-15.507-17.61-26.978-20.684-11.473-3.076-23.443-1.504-33.705 4.423l-78.787 45.487c-3.871 2.235-7.32 4.977-10.301 8.186-10.234.461-20.313 2.754-29.756 6.745 5.397-14.369 15.512-26.329 28.987-34.108l78.785-45.486c31.787-18.352 72.579-7.422 90.932 24.364 8.894 15.408 11.259 33.348 6.66 50.513z"/>
            <path d="m97.874 165.505c1.941 1.853 4.431 2.773 6.918 2.773 2.641 0 5.279-1.038 7.247-3.1 3.822-4.002 3.675-10.344-.327-14.165l-19.541-18.659c-4.003-3.821-10.343-3.677-14.165.327-3.822 4.002-3.675 10.344.327 14.165z"/>
            <path d="m52.98 228.317 23.255 9.417c1.233.499 2.506.736 3.758.736 3.96 0 7.712-2.365 9.289-6.261 2.077-5.129-.397-10.971-5.525-13.047l-23.255-9.417c-5.132-2.077-10.971.397-13.047 5.525-2.077 5.129.397 10.971 5.525 13.047z"/>
            <path d="m161.919 124.752c1.916 2.972 5.139 4.592 8.431 4.592 1.858 0 3.74-.517 5.418-1.599 4.65-2.998 5.991-9.198 2.993-13.849l-13.592-21.088c-2.997-4.65-9.195-5.992-13.849-2.993-4.65 2.998-5.991 9.198-2.993 13.849z"/>
            <path d="m403.988 320.603c-4.003-3.821-10.343-3.676-14.165.327-3.822 4.002-3.675 10.344.327 14.165l19.541 18.659c1.941 1.853 4.431 2.773 6.918 2.773 2.641 0 5.279-1.038 7.247-3.1 3.822-4.002 3.675-10.344-.327-14.165z"/>
            <path d="m448.882 257.79-23.254-9.417c-5.131-2.077-10.97.397-13.047 5.525-2.077 5.129.396 10.97 5.525 13.047l23.254 9.417c1.233.499 2.506.736 3.758.736 3.96 0 7.711-2.365 9.289-6.261 2.077-5.129-.396-10.97-5.525-13.047z"/>
            <path d="m339.943 361.356c-2.997-4.651-9.197-5.994-13.848-2.994-4.651 2.998-5.992 9.198-2.994 13.848l13.592 21.089c1.916 2.973 5.139 4.593 8.431 4.593 1.858 0 3.74-.517 5.417-1.599 4.651-2.998 5.992-9.198 2.994-13.848z"/>
        </g>
    </g>
</svg>