<svg id="Layer_1" enable-background="new 0 0 53 53" height="512" viewBox="0 0 53 53" width="512"
     xmlns="http://www.w3.org/2000/svg">
    <g id="_x31_20">
        <g>
            <path d="m50.4999771 7.5773439.0000114 37.8452263c0 2.7980003-2.2673416 5.0774155-5.0773392 5.0774155l-37.8452262.0000067c-2.7979984.0000038-5.0774136-2.2794113-5.077414-5.0774117l-.0000091-37.8452253c-.0000007-2.8100705 2.2794132-5.0773394 5.0774117-5.0773401l37.8452263-.0000091c2.8099975-.0000007 5.0773391 2.2672677 5.0773391 5.0773377z"
                  fill="#666"/>
            <path d="m45.4226608 2.5000141h-2.1883583v13.3086779c0 15.5684423-12.6207161 28.1891594-28.1891594 28.1891594h-12.5451188v1.4247246c0 2.7925758 2.2848358 5.0774117 5.0774126 5.0774117h37.8452225c2.8041382 0 5.0773392-2.273201 5.0773392-5.0773392v-37.8452955c.0000014-2.8041368-2.2731996-5.0773389-5.0773378-5.0773389z"
                  fill="#5b5959"/>
            <g>
                <path d="m38.0920372 6.9461737.0000038 5.0996084c0 2.7399883-2.221199 4.9611874-4.9611893 4.9611893l-13.2604961.0000019c-2.7399883.0000019-4.9611883-2.2211971-4.9611893-4.9611855l-.000001-5.0996084c-.000001-.7207103.5842505-1.3049612 1.3049593-1.3049612l20.5729542-.0000048c.720707-.0000005 1.3049584.5842505 1.3049584 1.3049603z"
                      fill="#d3dcfd"/>
                <path d="m17.3105488 16.2758636c0-5.1023722 4.1362896-9.2386627 9.2386627-9.2386627h11.5428295v-.0910558c0-.7207174-.5842438-1.3049622-1.3049622-1.3049622h-20.5729541c-.7207108 0-1.3049622.5842514-1.3049622 1.3049622v5.0996428c0 1.7994757.9675322 3.3603067 2.4013863 4.2300854z"
                      fill="#c4d1f2"/>
                <path d="m23.7300377 17.0069733c0-1.5209656 1.2411175-2.7619781 2.7618713-2.7619791 1.5382481 0 2.7792606 1.2410116 2.7792606 2.7619772z"
                      fill="#f66"/>
                <path d="m28.3802967 16.0725441-1.5659084-1.1356869 3.8987293-3.7282505z" fill="#f66"/>
                <g>
                    <g>
                        <path d="m26.086 6.152h.828v1.611h-.828z" fill="#666"/>
                    </g>
                    <g>
                        <path d="m23.756 6.458h.828v1.611h-.828z" fill="#666"
                              transform="matrix(.966 -.259 .259 .966 -1.056 6.503)"/>
                    </g>
                    <g>
                        <path d="m21.585 7.358h.828v1.611h-.828z" fill="#666"
                              transform="matrix(.866 -.5 .5 .866 -1.134 12.093)"/>
                    </g>
                    <g>
                        <path d="m19.72 8.789h.828v1.611h-.828z" fill="#666"
                              transform="matrix(.707 -.707 .707 .707 -.887 17.047)"/>
                    </g>
                    <g>
                        <path d="m18.289 10.653h.828v1.611h-.828z" fill="#666"
                              transform="matrix(.5 -.866 .866 .5 -.572 21.927)"/>
                    </g>
                    <g>
                        <path d="m17.39 12.825h.828v1.611h-.828z" fill="#666"
                              transform="matrix(.259 -.966 .966 .259 .03 27.3)"/>
                    </g>
                    <g>
                        <path d="m34.392 13.216h1.611v.828h-1.611z" fill="#666"
                              transform="matrix(.966 -.259 .259 .966 -2.328 9.574)"/>
                    </g>
                    <g>
                        <path d="m33.492 11.044h1.611v.828h-1.611z" fill="#666"
                              transform="matrix(.866 -.5 .5 .866 -1.134 18.684)"/>
                    </g>
                    <g>
                        <path d="m32.062 9.18h1.611v.828h-1.611z" fill="#666"
                              transform="matrix(.707 -.707 .707 .707 2.843 26.05)"/>
                    </g>
                    <g>
                        <path d="m30.197 7.749h1.611v.828h-1.611z" fill="#666"
                              transform="matrix(.5 -.866 .866 .5 8.432 30.93)"/>
                    </g>
                    <g>
                        <path d="m28.026 6.85h1.611v.828h-1.611z" fill="#666"
                              transform="matrix(.259 -.966 .966 .259 14.353 33.232)"/>
                    </g>
                </g>
            </g>
            <g>
                <path d="m25.872 17.007h1.257v33.493h-1.257z" fill="#fff"/>
            </g>
            <path d="m6.4746709 11.8969555v14.4100342c0 .6699829-.5400391 1.2099609-1.2000122 1.2099609s-1.2000122-.539978-1.2000122-1.2099609v-14.4100342c0-.6599731.5400391-1.1999512 1.2000122-1.1999512s1.2000122.539978 1.2000122 1.1999512z"
                  fill="#fff" opacity=".3"/>
        </g>
        <g>
            <g>
                <path d="m11.1124678 50.4999924c.4124289-.3782883.7924957-.7556152 1.1045275-1.1309013.5605478-.6741905.7268543-1.5916786.5074091-2.4405518-1.3687382-5.2946472-4.6202908-7.9802818-4.8091412-15.9249249-.6306076-2.2610779-.4696655-3.9970093.4768677-3.7138367-.6252975-1.5919189-.2427673-2.5217285.9262085-2.4171448.0195541-1.2781372.699295-1.9824829 1.4909592-1.9879456-.2404404-.7410278-.0127726-1.480772.858427-1.8072472.4712057-.1765785.9370375-.0007973 1.3097744.3614712-.0198689-.7354717.3632841-1.4495678 1.2655287-1.7620583 1.3713913-.4749794 3.0255108.1985435 3.4563179 2.7334328.3117485 1.8343353.8843098 3.5057659 1.8474846 6.4408627 1.1620293 3.5410595.5875587 6.8497219 1.0729713 9.2982807.8810291 4.6988029 3.8967094 9.8610878 2.7045441 12.350563h-12.2118788z"
                      fill="#fcc"/>
                <g fill="#f2bbbb">
                    <path d="m12.9775038 21.4389172c.2741928.817688.5723877 1.602478.897377 2.3990784.1430817.4046631.2846222.8175354.3631058 1.2452087.0829163.4266968.1074677.8615417.0876007 1.2913513-.1478806-.8501587-.3593063-1.6594849-.6844864-2.4487915-.1405182-.4021912-.3007202-.8027039-.4164276-1.218811-.1204682-.4145508-.2015991-.840149-.2471695-1.2680359z"/>
                    <path d="m10.8092985 22.8846874c.3500061.7702942.6087036 1.5693054.8744125 2.3660889.2380753.805481.48349 1.6086426.6361847 2.4409485-.3508301-.77005-.6089478-1.5692139-.8744125-2.3660889-.2378235-.805542-.4826584-1.6089172-.6361847-2.4409485z"/>
                    <path d="m9.3183393 24.872633c.3930206.7901611.695961 1.6126709 1.0058136 2.4326782.2825928.8298035.5724258 1.6570129.7707901 2.5170593-.393837-.7898865-.6962051-1.6125793-1.0058136-2.4327087-.2823486-.8298645-.5716094-1.6572876-.7707901-2.5170288z"/>
                    <path d="m8.3921309 27.2897778c.3414001.6054993.5698929 1.260498.7675552 1.9228516.1701889.6695862.3109512 1.3507996.3164444 2.0464172-.210434-.661438-.3614426-1.3251343-.5571594-1.980011-.1674881-.6624451-.3781891-1.3111267-.5268402-1.9892578z"/>
                    <path d="m16.3309326 21.887558-1.8207932.6989059c-.2105322.0808125-.4563923-.0283699-.5168085-.2456341-.0911207-.3276863-.138896-.6478367-.145196-.9415493-.0030813-.1436729.0818224-.2731495.2073879-.3430443l1.3274164-.7388821c.1463442-.081459.3336649-.0700359.4541912.0462627.2653379.2560291.5104055.5933323.7122622.9935131.1020032.2022249-.0070075.4492628-.21846.5304281z"/>
                    <path d="m12.7066479 22.6171532-1.1819267.45368c-.1366625.0524578-.296257-.0184155-.335475-.1594486-.0591488-.2127094-.0901613-.4205284-.0942507-.6111851-.0019999-.0932617.053113-.177309.1346216-.2226791l.8616619-.4796276c.0949965-.0528793.2165909-.0454636.2948284.0300293.1722374.1661949.3313189.3851471.4623489.6449165.0662137.1312694-.0045489.2916279-.1418084.3443146z"/>
                    <path d="m10.9532356 24.6209679-.9617052.3691463c-.1111984.0426846-.2410574-.0149822-.2729673-.1297378-.0481281-.1730766-.0733624-.3421726-.0766897-.4973068-.001627-.0758858.0432167-.1442719.1095381-.1811886l.7011137-.3902626c.0772953-.0430241.1762352-.0369911.2398949.024435.1401453.1352291.2695856.313385.3762016.5247536.0538759.1068115-.0037022.2372913-.1153861.2801609z"/>
                    <path d="m9.3178949 26.0812149-.736167.2825756c-.0851202.0326729-.1845245-.0114708-.208951-.0993137-.0368414-.1324863-.0561571-.2619267-.0587044-.3806782-.0012455-.0580883.033082-.1104374.083849-.1386967l.5366898-.2987366c.0591679-.0329361.1349039-.0283165.1836338.0187035.1072788.1035156.2063627.2398911.2879753.4016895.0412417.0817605-.0028333.1816407-.0883255.2144566z"/>
                    <path d="m8.4059496 28.3239403-.4757509.1826153c-.0550094.0211143-.1192493-.0074139-.135035-.0641823-.023809-.085619-.0362921-.1692715-.0379381-.2460136-.0008049-.0375404.021379-.0713711.0541878-.0896339l.3468375-.1930599c.0382376-.0212841.087182-.0182991.1186743.0120869.0693293.0668983.1333628.1550312.1861048.259594.0266522.0528372-.0018312.1173857-.0570804.1385935z"/>
                </g>
            </g>
            <g>
                <path d="m41.8875313 50.4999924c-.412426-.3782883-.7924957-.7556152-1.1045265-1.1309013-.5605469-.6741905-.7268562-1.5916786-.5074081-2.4405518 1.3687363-5.2946472 4.6202888-7.9802818 4.8091393-15.9249249.6306076-2.2610779.4696655-3.9970093-.4768677-3.7138367.6252975-1.5919189.2427673-2.5217285-.9262085-2.4171448-.0195541-1.2781372-.699295-1.9824829-1.4909592-1.9879456.2404404-.7410278.0127716-1.480772-.8584251-1.8072472-.4712067-.1765785-.9370384-.0007973-1.3097763.3614712.0198708-.7354717-.3632813-1.4495678-1.2655296-1.7620583-1.3713875-.4749794-3.0255089.1985435-3.4563179 2.7334328-.3117485 1.8343353-.8843079 3.5057659-1.8474846 6.4408627-1.1620255 3.5410595-.5875549 6.8497219-1.0729713 9.2982807-.8810272 4.6988029-3.8967075 9.8610878-2.7045422 12.350563h12.2118777z"
                      fill="#fcc"/>
                <g fill="#f2bbbb">
                    <path d="m40.0224953 21.4389172c-.2741928.817688-.5723877 1.602478-.897377 2.3990784-.1430817.4046631-.2846222.8175354-.3631058 1.2452087-.0829163.4266968-.1074677.8615417-.0876007 1.2913513.1478806-.8501587.3593063-1.6594849.6844864-2.4487915.1405182-.4021912.3007202-.8027039.4164276-1.218811.1204681-.4145508.2015991-.840149.2471695-1.2680359z"/>
                    <path d="m42.1907005 22.8846874c-.3500061.7702942-.6087036 1.5693054-.8744125 2.3660889-.2380753.805481-.48349 1.6086426-.6361847 2.4409485.3508301-.77005.6089478-1.5692139.8744125-2.3660889.2378235-.805542.4826584-1.6089172.6361847-2.4409485z"/>
                    <path d="m43.6816597 24.872633c-.3930206.7901611-.695961 1.6126709-1.0058136 2.4326782-.2825928.8298035-.5724258 1.6570129-.7707901 2.5170593.393837-.7898865.6962051-1.6125793 1.0058136-2.4327087.2823486-.8298645.5716095-1.6572876.7707901-2.5170288z"/>
                    <path d="m44.6078682 27.2897778c-.3414001.6054993-.5698929 1.260498-.7675552 1.9228516-.1701889.6695862-.3109512 1.3507996-.3164444 2.0464172.210434-.661438.3614426-1.3251343.5571594-1.980011.1674881-.6624451.3781891-1.3111267.5268402-1.9892578z"/>
                    <path d="m36.6690674 21.887558 1.8207932.6989059c.2105331.0808125.4563942-.0283699.5168076-.2456341.0911217-.3276863.1388969-.6478367.145195-.9415493.0030823-.1436729-.0818214-.2731495-.207386-.3430443l-1.3274155-.7388821c-.1463432-.081459-.3336639-.0700359-.4541931.0462627-.2653351.2560291-.5104065.5933323-.7122612.9935131-.1020051.2022249.0070075.4492628.21846.5304281z"/>
                    <path d="m40.2933502 22.6171532 1.1819305.45368c.1366615.0524578.296257-.0184155.3354721-.1594486.0591507-.2127094.0901604-.4205284.0942497-.6111851.0020027-.0932617-.053112-.177309-.1346207-.2226791l-.86166-.4796276c-.0949974-.0528793-.2165909-.0454636-.2948303.0300293-.1722374.1661949-.3313179.3851471-.4623489.6449165-.0662116.1312694.004551.2916279.1418076.3443146z"/>
                    <path d="m42.0467644 24.6209679.9617043.3691463c.1111984.0426846.2410583-.0149822.2729683-.1297379.0481262-.1730766.0733604-.3421726.0766907-.4973068.0016251-.0758858-.0432167-.1442719-.109539-.1811886l-.7011147-.3902626c-.0772934-.0430241-.1762352-.0369911-.2398949.024435-.1401443.1352291-.2695847.313385-.3762016.5247536-.0538751.1068116.003704.2372914.1153869.280161z"/>
                    <path d="m43.682106 26.0812149.7361641.2825756c.0851212.0326729.1845245-.0114708.2089539-.0993137.0368385-.1324863.0561562-.2619267.0587044-.3806782.0012436-.0580883-.0330811-.1104374-.0838509-.1386967l-.5366898-.2987366c-.059166-.0329361-.134903-.0283165-.1836319.0187035-.1072807.1035156-.2063637.2398911-.2879753.4016895-.0412407.0817605.0028305.1816407.0883255.2144566z"/>
                    <path d="m44.5940514 28.3239403.47575.1826153c.0550079.0211143.1192513-.0074139.1350365-.0641823.0238075-.085619.0362892-.1692715.0379372-.2460136.0008049-.0375404-.0213814-.0713711-.0541878-.0896339l-.3468361-.1930599c-.0382385-.0212841-.0871849-.0182991-.1186752.0120869-.0693283.0668983-.1333618.1550312-.1861076.259594-.0266496.0528372.0018309.1173857.057083.1385935z"/>
                </g>
            </g>
        </g>
    </g>
</svg>