<svg id="Layer_1" enable-background="new 0 0 66 66" height="512" viewBox="0 0 66 66" width="512"
     xmlns="http://www.w3.org/2000/svg">
    <g>
        <path d="m62.72 44.23c-17.25-10.6-36.76-16.96-56.94-18.57-.83 2.56-1.67 5.11-2.5 7.67 20.18 1.61 39.69 7.97 56.94 18.57.83-2.56 1.67-5.12 2.5-7.67z"
              fill="#f8b517"/>
        <path d="m3.28 44.23c17.25-10.6 36.76-16.96 56.94-18.57.83 2.56 1.67 5.11 2.5 7.67-20.18 1.61-39.69 7.97-56.94 18.57-.83-2.56-1.67-5.12-2.5-7.67z"
              fill="#f8b517"/>
        <g>
            <g>
                <path d="m32.03 23.65c-.05 0-.11 0-.16-.01-.48-.09-.81-.55-.72-1.03.06-.37 1.4-8.88-9.08-12.32-.47-.15-.72-.66-.57-1.13s.66-.72 1.13-.57c11.99 3.94 10.29 14.22 10.27 14.33-.07.43-.45.73-.87.73z"
                      fill="#646b79"/>
            </g>
            <path d="m33.15 16.73c8.69 0 15.73-7.04 15.73-15.73-8.69 0-15.73 7.04-15.73 15.73z" fill="#e25033"/>
            <path d="m45.73 17.18c-4.03-.59-8.04 1.2-11.36 4.61-1.27 1.3-3.39 1.3-4.67 0-3.33-3.4-7.33-5.19-11.36-4.61-8.66 1.26-14.12 12.96-12.2 26.14s10.49 22.83 19.15 21.57c.96-.14 1.89-.41 2.76-.8 2.56-1.14 5.4-1.14 7.96 0 .88.39 1.8.66 2.76.8 8.66 1.26 17.23-8.4 19.15-21.57 1.92-13.18-3.54-24.88-12.19-26.14z"
                  fill="#f0582f"/>
        </g>
        <g>
            <path d="m62.72 33.37c-17.25 10.6-36.76 16.96-56.94 18.57-.83-2.56-1.67-5.11-2.5-7.67 20.18-1.61 39.69-7.97 56.94-18.57.83 2.56 1.67 5.12 2.5 7.67z"
                  fill="#fbd303"/>
            <g fill="#646b79">
                <path d="m8.51 47.32c-.25.03-.51.05-.76.08-.38-1.15-.75-2.29-1.12-3.44.25-.03.51-.05.76-.08.37 1.14.75 2.29 1.12 3.44z"/>
                <path d="m11.58 45.52c-.25.04-.5.07-.76.1-.23-.7-.45-1.39-.68-2.09.25-.03.51-.07.76-.1.23.7.45 1.39.68 2.09z"/>
                <path d="m15.52 46.33c-.25.04-.5.08-.75.12-.37-1.15-.75-2.29-1.12-3.44l.75-.12c.37 1.15.74 2.3 1.12 3.44z"/>
                <path d="m18.55 44.35c-.25.05-.5.1-.75.15-.23-.7-.45-1.39-.68-2.09.25-.05.5-.1.75-.15.23.69.45 1.39.68 2.09z"/>
                <path d="m22.44 44.97c-.25.06-.5.11-.74.17-.37-1.15-.75-2.29-1.12-3.44.25-.05.5-.11.74-.17.38 1.15.75 2.29 1.12 3.44z"/>
                <path d="m25.43 42.79c-.25.06-.49.12-.74.19-.23-.7-.45-1.39-.68-2.09.25-.06.49-.12.74-.19.23.7.46 1.4.68 2.09z"/>
                <path d="m29.28 43.23c-.24.07-.49.14-.73.21-.37-1.15-.75-2.29-1.12-3.44.24-.07.49-.14.73-.21.37 1.14.74 2.29 1.12 3.44z"/>
                <path d="m32.21 40.86c-.24.08-.48.15-.73.23-.23-.7-.45-1.39-.68-2.09.24-.07.48-.15.73-.23.23.7.46 1.4.68 2.09z"/>
                <path d="m36 41.12c-.24.08-.48.16-.72.25-.37-1.15-.75-2.29-1.12-3.44.24-.08.48-.16.72-.25.37 1.14.75 2.29 1.12 3.44z"/>
                <path d="m38.88 38.57c-.24.09-.48.18-.71.27-.23-.7-.45-1.39-.68-2.09.24-.09.48-.18.71-.27.22.7.45 1.39.68 2.09z"/>
                <path d="m42.6 38.64c-.24.1-.47.19-.71.29-.37-1.15-.75-2.29-1.12-3.44.24-.09.47-.19.71-.29.37 1.14.75 2.29 1.12 3.44z"/>
                <path d="m45.41 35.91c-.23.1-.47.2-.7.3-.23-.7-.45-1.39-.68-2.09.23-.1.47-.2.7-.3.22.69.45 1.39.68 2.09z"/>
                <path d="m49.06 35.79c-.23.11-.46.22-.69.32-.37-1.15-.75-2.29-1.12-3.44.23-.11.46-.22.69-.32.37 1.15.75 2.3 1.12 3.44z"/>
                <path d="m51.79 32.89c-.23.12-.45.23-.68.34-.23-.7-.45-1.39-.68-2.09.23-.11.45-.23.68-.34.23.69.46 1.39.68 2.09z"/>
                <path d="m55.37 32.6c-.22.12-.45.24-.67.36-.37-1.15-.75-2.29-1.12-3.44.22-.12.45-.24.67-.36.37 1.14.74 2.29 1.12 3.44z"/>
                <path d="m58.01 29.51c-.22.13-.44.25-.66.38-.23-.7-.45-1.39-.68-2.09.22-.13.44-.25.66-.38.23.7.46 1.39.68 2.09z"/>
            </g>
        </g>
        <g>
            <path d="m3.28 33.37c17.25 10.6 36.76 16.96 56.94 18.57.83-2.56 1.67-5.11 2.5-7.67-20.18-1.61-39.69-7.97-56.94-18.57-.83 2.56-1.67 5.12-2.5 7.67z"
                  fill="#f5ea0a"/>
            <g fill="#646b79">
                <path d="m57.49 47.32c.25.03.51.06.76.08.37-1.15.75-2.29 1.12-3.44-.25-.03-.51-.05-.76-.08-.37 1.14-.75 2.29-1.12 3.44z"/>
                <path d="m54.42 45.52c.25.04.5.07.76.1.23-.7.45-1.39.68-2.09-.25-.03-.51-.07-.76-.1-.23.7-.45 1.39-.68 2.09z"/>
                <path d="m50.48 46.33.75.12c.37-1.15.75-2.29 1.12-3.44-.25-.04-.5-.08-.75-.12-.37 1.15-.74 2.3-1.12 3.44z"/>
                <path d="m47.45 44.35c.25.05.5.1.75.15.23-.7.45-1.39.68-2.09-.25-.05-.5-.1-.75-.15-.23.69-.45 1.39-.68 2.09z"/>
                <path d="m43.56 44.97c.25.06.5.11.74.17.37-1.15.75-2.29 1.12-3.44-.25-.05-.5-.11-.74-.17-.38 1.15-.75 2.29-1.12 3.44z"/>
                <path d="m40.57 42.79c.25.06.49.12.74.19.23-.7.45-1.39.68-2.09-.25-.06-.49-.12-.74-.19-.23.7-.46 1.4-.68 2.09z"/>
                <path d="m36.72 43.23c.24.07.49.14.73.21.37-1.15.75-2.29 1.12-3.44-.24-.07-.49-.14-.73-.21-.37 1.14-.74 2.29-1.12 3.44z"/>
                <path d="m33.79 40.86c.24.08.48.15.73.23.23-.7.45-1.39.68-2.09-.24-.07-.48-.15-.73-.23-.23.7-.46 1.4-.68 2.09z"/>
                <path d="m30 41.12c.24.08.48.16.72.25.37-1.15.75-2.29 1.12-3.44-.24-.08-.48-.16-.72-.25-.37 1.14-.75 2.29-1.12 3.44z"/>
                <path d="m27.12 38.57c.24.09.48.18.71.27.23-.7.45-1.39.68-2.09-.24-.09-.48-.18-.71-.27-.22.7-.45 1.39-.68 2.09z"/>
                <path d="m23.4 38.64c.24.1.47.19.71.29.37-1.15.75-2.29 1.12-3.44-.24-.09-.47-.19-.71-.29-.37 1.14-.75 2.29-1.12 3.44z"/>
                <path d="m20.59 35.91c.23.1.47.2.7.3.23-.7.45-1.39.68-2.09-.23-.1-.47-.2-.7-.3-.22.69-.45 1.39-.68 2.09z"/>
                <path d="m16.94 35.79c.23.11.46.22.69.32.37-1.15.75-2.29 1.12-3.44-.23-.11-.46-.22-.69-.32-.37 1.15-.75 2.3-1.12 3.44z"/>
                <path d="m14.21 32.89c.23.12.45.23.68.34.23-.7.45-1.39.68-2.09-.23-.11-.45-.23-.68-.34-.23.69-.46 1.39-.68 2.09z"/>
                <path d="m10.63 32.6c.22.12.45.24.67.36.37-1.15.75-2.29 1.12-3.44-.22-.12-.45-.24-.67-.36-.37 1.14-.74 2.29-1.12 3.44z"/>
                <path d="m7.99 29.51c.22.13.44.25.66.38.23-.7.45-1.39.68-2.09-.22-.13-.44-.25-.66-.38-.23.7-.46 1.39-.68 2.09z"/>
            </g>
        </g>
    </g>
</svg>